<?xml version="1.0" encoding="UTF-8" standalone="no"?>
<!-- Created with Inkscape (http://www.inkscape.org/) -->

<svg
   xmlns:dc="http://purl.org/dc/elements/1.1/"
   xmlns:cc="http://creativecommons.org/ns#"
   xmlns:rdf="http://www.w3.org/1999/02/22-rdf-syntax-ns#"
   xmlns:svg="http://www.w3.org/2000/svg"
   xmlns="http://www.w3.org/2000/svg"
   xmlns:sodipodi="http://sodipodi.sourceforge.net/DTD/sodipodi-0.dtd"
   xmlns:inkscape="http://www.inkscape.org/namespaces/inkscape"
   width="959.93677"
   height="959.93677"
   id="svg3087"
   version="1.1"
   inkscape:version="0.48.4 r9939"
   sodipodi:docname="logo-corner.svg"
   inkscape:export-filename="F:\asia-wp7-3\logo-150.png"
   inkscape:export-xdpi="14.063426"
   inkscape:export-ydpi="14.063426">
  <defs
     id="defs3089" />
  <sodipodi:namedview
     id="base"
     pagecolor="#ffffff"
     bordercolor="#666666"
     borderopacity="1.0"
     inkscape:pageopacity="0.0"
     inkscape:pageshadow="2"
     inkscape:zoom="0.35"
     inkscape:cx="172.74408"
     inkscape:cy="507.77008"
     inkscape:document-units="px"
     inkscape:current-layer="layer1"
     showgrid="false"
     inkscape:window-width="1920"
     inkscape:window-height="1017"
     inkscape:window-x="-8"
     inkscape:window-y="-8"
     inkscape:window-maximized="1"
     fit-margin-top="0"
     fit-margin-left="0"
     fit-margin-right="0"
     fit-margin-bottom="0" />
  <metadata
     id="metadata3092">
    <rdf:RDF>
      <cc:Work
         rdf:about="">
        <dc:format>image/svg+xml</dc:format>
        <dc:type
           rdf:resource="http://purl.org/dc/dcmitype/StillImage" />
        <dc:title></dc:title>
      </cc:Work>
    </rdf:RDF>
  </metadata>
  <g
     inkscape:label="Layer 1"
     inkscape:groupmode="layer"
     id="layer1"
     transform="translate(68.539833,-40.965229)">
    <path
       style="fill:#7f7f7f;stroke:none;stroke-opacity:1;fill-opacity:0.15789473"
       d="M 382.75 202.75 C 382.51582 203.16095 354.01455 256.48761 358.9375 302.84375 C 355.24106 309.1097 352.42741 315.88918 350.65625 323.125 C 349.38773 328.3069 348.71254 333.53528 348.5625 338.75 L 255.75 298.1875 L 252.5 305.59375 L 348.84375 347.6875 C 349.52448 355.37779 351.32999 363.01405 354.1875 370.4375 L 236.34375 345.78125 L 234.6875 353.6875 L 358.28125 379.53125 C 361.30763 385.45781 364.99198 391.21724 369.28125 396.71875 L 238.03125 393 L 237.8125 401.09375 L 376.40625 405.03125 C 377.99087 406.72182 379.64198 408.40405 381.34375 410.03125 L 378.28125 409.6875 C 329.17718 446.30936 354.08989 539.70908 378.34375 594.28125 C 388.63774 593.64632 406.14358 597.75551 429.1875 608.65625 C 450.70683 615.63258 409.66704 575.22023 438.5 537.5625 C 436.55732 554.79146 431.57547 608.24525 462.09375 619.90625 C 509.93612 650.97389 474.72687 536.19964 491 540.40625 C 500.1994 543.60701 500.30445 617.34563 489.625 627.46875 C 501.08612 630.56577 502.32311 630.28019 516.875 631.125 C 595.51107 572.03143 580.92911 542.52984 587.15625 539.78125 C 607.56413 552.11707 569.16068 598.82908 528.90625 632.65625 C 556.01151 636.63381 570.85305 639.52719 596.03125 639.46875 L 596.03125 467.3125 C 589.94677 464.45601 583.46602 461.54247 576.40625 458.5 C 569.96499 448.74845 565.42343 445.75666 564.1875 440.375 L 596.03125 452.59375 L 596.03125 443.96875 L 564.46875 431.84375 C 564.58382 431.26205 564.69467 430.66808 564.84375 430.03125 L 564.59375 430 C 568.5898 427.14487 572.31288 424.06084 575.71875 420.71875 L 596.03125 425.25 L 596.03125 416.9375 L 582 413.8125 C 586.79476 407.94563 590.69715 401.50163 593.59375 394.53125 L 596.03125 394.65625 L 596.03125 266.5625 C 577.88953 269.39748 561.192 273.77959 547.6875 281.6875 C 533.05694 271.90764 515.87784 264.22139 496.90625 259.5625 C 478.2241 254.97465 459.72836 253.82156 442.46875 255.59375 C 430.19271 235.21034 407.40605 218.64138 382.75 202.75 z M 430.09375 319.5 C 435.51681 319.1966 441.29793 322.92474 441.46875 330.25 C 441.7903 344.03873 420.1667 344.55281 420.59375 330 C 420.79393 323.17837 425.3087 319.76771 430.09375 319.5 z M 513.09375 336.34375 C 518.44556 336.35917 523.76713 339.93729 523.71875 347.3125 C 523.62195 362.06292 502.32921 360.67611 502.34375 346.8125 C 502.351 339.8807 507.74194 336.32833 513.09375 336.34375 z M 368 599.53125 C 365.35364 599.53231 362.85024 599.79079 360.5 600.375 C 344.41319 604.37374 338.92638 611.70775 336.375 619.4375 C 328.29073 637.99332 328.91826 651.68697 346.53125 663.9375 C 348.212 665.43666 349.99043 666.86621 351.84375 668.25 L 596.03125 668.25 L 596.03125 650 C 568.79929 649.10084 532.27689 643.25916 496.03125 636.46875 C 433.4266 624.74014 393.58145 599.52104 368 599.53125 z "
       transform="translate(-68.539833,40.965229)"
       id="rect2990"
       inkscape:export-filename="D:\studyworkspace\Ace IM\res\drawable-xxhdpi\logo_corner_small.png"
       inkscape:export-xdpi="18.560688"
       inkscape:export-ydpi="18.560688" />
  </g>
</svg>
