<?xml version="1.0" encoding="UTF-8" standalone="no"?>
<!-- Created with Inkscape (http://www.inkscape.org/) -->

<svg
   xmlns:dc="http://purl.org/dc/elements/1.1/"
   xmlns:cc="http://creativecommons.org/ns#"
   xmlns:rdf="http://www.w3.org/1999/02/22-rdf-syntax-ns#"
   xmlns:svg="http://www.w3.org/2000/svg"
   xmlns="http://www.w3.org/2000/svg"
   xmlns:sodipodi="http://sodipodi.sourceforge.net/DTD/sodipodi-0.dtd"
   xmlns:inkscape="http://www.inkscape.org/namespaces/inkscape"
   width="959.93677"
   height="959.93677"
   id="svg3087"
   version="1.1"
   inkscape:version="0.48.4 r9939"
   sodipodi:docname="dummy_plugin_icon.svg"
   inkscape:export-filename="D:\studyworkspace\Ace IM\res\drawable-xxhdpi\dummy_icon.png"
   inkscape:export-xdpi="194.35384"
   inkscape:export-ydpi="194.35384">
  <defs
     id="defs3089" />
  <sodipodi:namedview
     id="base"
     pagecolor="#ffffff"
     bordercolor="#666666"
     borderopacity="1.0"
     inkscape:pageopacity="0.0"
     inkscape:pageshadow="2"
     inkscape:zoom="0.49497475"
     inkscape:cx="162.4148"
     inkscape:cy="438.22457"
     inkscape:document-units="px"
     inkscape:current-layer="layer1"
     showgrid="false"
     inkscape:window-width="1920"
     inkscape:window-height="1017"
     inkscape:window-x="-8"
     inkscape:window-y="-8"
     inkscape:window-maximized="1"
     fit-margin-top="0"
     fit-margin-left="0"
     fit-margin-right="0"
     fit-margin-bottom="0" />
  <metadata
     id="metadata3092">
    <rdf:RDF>
      <cc:Work
         rdf:about="">
        <dc:format>image/svg+xml</dc:format>
        <dc:type
           rdf:resource="http://purl.org/dc/dcmitype/StillImage" />
        <dc:title></dc:title>
      </cc:Work>
    </rdf:RDF>
  </metadata>
  <g
     inkscape:label="Layer 1"
     inkscape:groupmode="layer"
     id="layer1"
     transform="translate(68.539833,-40.965229)">
    <rect
       style="fill:#fb9000;fill-opacity:1;stroke:none"
       id="rect3751"
       width="553.5636"
       height="555.58392"
       x="105.2064"
       y="273.59216" />
    <path
       style="fill:#000000;fill-opacity:1;stroke:none"
       d="m 103.12375,272.63197 0,555.59375 311.25,0 c -1.7629,-1.32515 -3.45784,-2.69371 -5.0625,-4.125 -17.61299,-12.25053 -18.24052,-25.94418 -10.15625,-44.5 2.55138,-7.72975 8.03819,-15.06376 24.125,-19.0625 2.35024,-0.58421 4.85364,-0.84269 7.5,-0.84375 25.58145,-0.0102 65.4266,25.20889 128.03125,36.9375 36.20502,6.7828 72.68402,12.62204 99.90625,13.53125 l 0,-10.53125 c -25.11979,0.0508 -39.96056,-2.84001 -67.03125,-6.8125 40.25443,-33.82717 78.65788,-80.53918 58.25,-92.875 -6.22714,2.74859 8.35482,32.25018 -70.28125,91.34375 -14.55189,-0.84481 -15.78888,-0.55923 -27.25,-3.65625 10.67945,-10.12312 10.5744,-83.86174 1.375,-87.0625 -16.27313,-4.20661 18.93612,110.56764 -28.90625,79.5 -30.51828,-11.661 -25.53643,-65.11479 -23.59375,-82.34375 -28.83296,37.65773 12.20683,78.07008 -9.3125,71.09375 -23.04392,-10.90074 -40.54976,-15.00993 -50.84375,-14.375 -24.25386,-54.57217 -49.16657,-147.97189 -0.0625,-184.59375 l 3.0625,0.34375 c -1.70177,-1.6272 -3.35288,-3.30943 -4.9375,-5 l -138.59375,-3.9375 0.21875,-8.09375 131.25,3.71875 c -4.28927,-5.50151 -7.97362,-11.26094 -11,-17.1875 l -123.59375,-25.84375 1.65625,-7.90625 117.84375,24.65625 c -2.85751,-7.42345 -4.66302,-15.05971 -5.34375,-22.75 L 315.28,465.75697 l 3.25,-7.40625 92.8125,40.5625 c 0.15004,-5.21472 0.82523,-10.4431 2.09375,-15.625 1.77116,-7.23582 4.58481,-14.0153 8.28125,-20.28125 -4.92295,-46.35614 23.57832,-99.6828 23.8125,-100.09375 24.65605,15.89138 47.44271,32.46034 59.71875,52.84375 17.25961,-1.77219 35.75535,-0.6191 54.4375,3.96875 18.97159,4.65889 36.15069,12.34514 50.78125,22.125 13.48031,-7.89374 30.14595,-12.25831 48.25,-15.09375 l 0,-154.125 -555.59375,0 z m 555.59375,154.125 0,128.0625 0.0937,0 0,-128.09375 c -0.0325,0.005 -0.0613,0.0262 -0.0937,0.0312 z m 0,128.0625 -2.34375,-0.125 c -2.8966,6.97038 -6.79899,13.41438 -11.59375,19.28125 l 13.9375,3.09375 0,-22.25 z m 0,22.25 0,8.3125 0.0937,0.0312 0,-8.3125 -0.0937,-0.0312 z m 0,8.3125 -20.21875,-4.5 c -3.40587,3.34209 -7.12895,6.42612 -11.125,9.28125 l 0.25,0.0312 c -0.14908,0.63683 -0.25993,1.2308 -0.375,1.8125 l 31.46875,12.09375 0,-18.71875 z m 0,18.71875 0,8.625 0.0937,0.0312 0,-8.625 -0.0937,-0.0312 z m 0,8.625 -31.75,-12.1875 c 1.23593,5.38166 5.77749,8.37345 12.21875,18.125 7.0264,3.02809 13.4718,5.93773 19.53125,8.78125 l 0,-14.71875 z m 0,14.71875 0,172.1875 c 0.0321,-6e-5 0.0616,7e-5 0.0937,0 l 0,-172.15625 c -0.0288,-0.0135 -0.065,-0.0177 -0.0937,-0.0312 z m 0,182.71875 0,18.0625 -244.34375,0 c 0.0836,0.0628 0.1661,0.12485 0.25,0.1875 l 244.1875,0 0,-18.25 c -0.0305,-10e-4 -0.0632,10e-4 -0.0937,0 z m -165.84375,-330.5 c -4.78505,0.26771 -9.29982,3.67837 -9.5,10.5 -0.42705,14.55281 21.19655,14.03873 20.875,0.25 -0.17082,-7.32526 -5.95194,-11.0534 -11.375,-10.75 z m 83,16.84375 c -5.35181,-0.0154 -10.74275,3.53695 -10.75,10.46875 -0.0145,13.86361 21.2782,15.25042 21.375,0.5 0.0484,-7.37521 -5.27319,-10.95333 -10.625,-10.96875 z"
       id="rect2990"
       inkscape:export-filename="D:\studyworkspace\Ace IM\res\drawable-ldpi-v11\dummy_icon.png"
       inkscape:export-xdpi="32.392307"
       inkscape:export-ydpi="32.392307"
       inkscape:connector-curvature="0" />
  </g>
</svg>
