<?xml version="1.0" encoding="UTF-8" standalone="no"?>
<!-- Created with Inkscape (http://www.inkscape.org/) -->

<svg
   xmlns:dc="http://purl.org/dc/elements/1.1/"
   xmlns:cc="http://creativecommons.org/ns#"
   xmlns:rdf="http://www.w3.org/1999/02/22-rdf-syntax-ns#"
   xmlns:svg="http://www.w3.org/2000/svg"
   xmlns="http://www.w3.org/2000/svg"
   xmlns:sodipodi="http://sodipodi.sourceforge.net/DTD/sodipodi-0.dtd"
   xmlns:inkscape="http://www.inkscape.org/namespaces/inkscape"
   width="959.93677"
   height="959.93677"
   id="svg3087"
   version="1.1"
   inkscape:version="0.48.4 r9939"
   sodipodi:docname="dummy_icon.svg"
   inkscape:export-filename="D:\studyworkspace\Ace IM\res\drawable-ldpi\dummy_icon.png"
   inkscape:export-xdpi="32.392307"
   inkscape:export-ydpi="32.392307">
  <defs
     id="defs3089" />
  <sodipodi:namedview
     id="base"
     pagecolor="#ffffff"
     bordercolor="#666666"
     borderopacity="1.0"
     inkscape:pageopacity="0.0"
     inkscape:pageshadow="2"
     inkscape:zoom="0.49497475"
     inkscape:cx="-225.95812"
     inkscape:cy="370.65633"
     inkscape:document-units="px"
     inkscape:current-layer="layer1"
     showgrid="false"
     inkscape:window-width="1920"
     inkscape:window-height="1017"
     inkscape:window-x="-8"
     inkscape:window-y="-8"
     inkscape:window-maximized="1"
     fit-margin-top="0"
     fit-margin-left="0"
     fit-margin-right="0"
     fit-margin-bottom="0" />
  <metadata
     id="metadata3092">
    <rdf:RDF>
      <cc:Work
         rdf:about="">
        <dc:format>image/svg+xml</dc:format>
        <dc:type
           rdf:resource="http://purl.org/dc/dcmitype/StillImage" />
        <dc:title></dc:title>
      </cc:Work>
    </rdf:RDF>
  </metadata>
  <g
     inkscape:label="Layer 1"
     inkscape:groupmode="layer"
     id="layer1"
     transform="translate(68.539833,-40.965229)">
    <path
       style="fill:#7f7f7f;stroke:none;stroke-opacity:1;fill-opacity:0.39215687"
       d="M 110.34375 112.46875 C 71.56375 112.46875 40.34375 143.68875 40.34375 182.46875 L 40.34375 598.0625 C 40.34375 636.8425 71.56375 668.0625 110.34375 668.0625 L 351.59375 668.0625 C 349.83085 666.73735 348.13591 665.36879 346.53125 663.9375 C 328.91826 651.68697 328.29073 637.99332 336.375 619.4375 C 338.92638 611.70775 344.41319 604.37374 360.5 600.375 C 362.85024 599.79079 365.35364 599.53231 368 599.53125 C 393.58145 599.52104 433.4266 624.74014 496.03125 636.46875 C 523.41088 641.59816 550.92835 646.17478 574.5 648.5 C 577.47408 645.63704 580.19541 642.53796 582.625 639.1875 C 564.76278 638.37973 550.85184 635.87666 528.90625 632.65625 C 569.16068 598.82908 607.56413 552.11707 587.15625 539.78125 C 580.92911 542.52984 595.51107 572.03143 516.875 631.125 C 502.32311 630.28019 501.08612 630.56577 489.625 627.46875 C 500.30445 617.34563 500.1994 543.60701 491 540.40625 C 474.72687 536.19964 509.93612 650.97389 462.09375 619.90625 C 431.57547 608.24525 436.55732 554.79146 438.5 537.5625 C 409.66704 575.22023 450.70683 615.63258 429.1875 608.65625 C 406.14358 597.75551 388.63774 593.64632 378.34375 594.28125 C 354.08989 539.70908 329.17718 446.30936 378.28125 409.6875 L 381.34375 410.03125 C 379.64198 408.40405 377.99087 406.72182 376.40625 405.03125 L 237.8125 401.09375 L 238.03125 393 L 369.28125 396.71875 C 364.99198 391.21724 361.30763 385.45781 358.28125 379.53125 L 234.6875 353.6875 L 236.34375 345.78125 L 354.1875 370.4375 C 351.32999 363.01405 349.52448 355.37779 348.84375 347.6875 L 252.5 305.59375 L 255.75 298.1875 L 348.5625 338.75 C 348.71254 333.53528 349.38773 328.3069 350.65625 323.125 C 352.42741 315.88918 355.24106 309.1097 358.9375 302.84375 C 354.01455 256.48761 382.51582 203.16095 382.75 202.75 C 407.40605 218.64138 430.19271 235.21034 442.46875 255.59375 C 459.72836 253.82156 478.2241 254.97465 496.90625 259.5625 C 515.87784 264.22139 533.05694 271.90764 547.6875 281.6875 C 561.16781 273.79376 577.83345 269.42919 595.9375 266.59375 L 595.9375 182.46875 C 595.9375 143.68875 564.7175 112.46875 525.9375 112.46875 L 110.34375 112.46875 z M 595.9375 266.59375 L 595.9375 394.65625 L 596.03125 394.65625 L 596.03125 266.5625 C 595.99875 266.56758 595.96999 266.58866 595.9375 266.59375 z M 595.9375 394.65625 L 593.59375 394.53125 C 590.69715 401.50163 586.79476 407.94563 582 413.8125 L 595.9375 416.90625 L 595.9375 394.65625 z M 595.9375 416.90625 L 595.9375 425.21875 L 596.03125 425.25 L 596.03125 416.9375 L 595.9375 416.90625 z M 595.9375 425.21875 L 575.71875 420.71875 C 572.31288 424.06084 568.5898 427.14487 564.59375 430 L 564.84375 430.03125 C 564.69467 430.66808 564.58382 431.26205 564.46875 431.84375 L 595.9375 443.9375 L 595.9375 425.21875 z M 595.9375 443.9375 L 595.9375 452.5625 L 596.03125 452.59375 L 596.03125 443.96875 L 595.9375 443.9375 z M 595.9375 452.5625 L 564.1875 440.375 C 565.42343 445.75666 569.96499 448.74845 576.40625 458.5 C 583.43265 461.52809 589.87805 464.43773 595.9375 467.28125 L 595.9375 452.5625 z M 595.9375 467.28125 L 595.9375 596.90625 L 596.03125 596.90625 L 596.03125 467.3125 C 596.00249 467.299 595.96628 467.29476 595.9375 467.28125 z M 582.625 639.1875 C 582.64526 639.18842 582.66723 639.18659 582.6875 639.1875 L 582.6875 639.09375 C 582.6655 639.1242 582.64705 639.15709 582.625 639.1875 z M 351.59375 668.0625 C 351.67734 668.12534 351.75985 668.18735 351.84375 668.25 L 490.53125 668.25 L 490.53125 668.0625 L 351.59375 668.0625 z M 430.09375 319.5 C 425.3087 319.76771 420.79393 323.17837 420.59375 330 C 420.1667 344.55281 441.7903 344.03873 441.46875 330.25 C 441.29793 322.92474 435.51681 319.1966 430.09375 319.5 z M 513.09375 336.34375 C 507.74194 336.32833 502.351 339.8807 502.34375 346.8125 C 502.32921 360.67611 523.62195 362.06292 523.71875 347.3125 C 523.76713 339.93729 518.44556 336.35917 513.09375 336.34375 z "
       transform="translate(-68.539833,40.965229)"
       id="rect2990"
       inkscape:export-filename="D:\studyworkspace\Ace IM\res\drawable-xhdpi\dummy_icon.png"
       inkscape:export-xdpi="103.65538"
       inkscape:export-ydpi="103.65538" />
  </g>
</svg>
