<?xml version="1.0" encoding="UTF-8" standalone="no"?>
<!-- Created with Inkscape (http://www.inkscape.org/) -->

<svg
   xmlns:dc="http://purl.org/dc/elements/1.1/"
   xmlns:cc="http://creativecommons.org/ns#"
   xmlns:rdf="http://www.w3.org/1999/02/22-rdf-syntax-ns#"
   xmlns:svg="http://www.w3.org/2000/svg"
   xmlns="http://www.w3.org/2000/svg"
   xmlns:sodipodi="http://sodipodi.sourceforge.net/DTD/sodipodi-0.dtd"
   xmlns:inkscape="http://www.inkscape.org/namespaces/inkscape"
   width="959.93677"
   height="959.93677"
   id="svg3087"
   version="1.1"
   inkscape:version="0.48.4 r9939"
   sodipodi:docname="dummy_plugin_icon.svg"
   inkscape:export-filename="D:\studyworkspace\Ace IM\res\drawable-xxhdpi\dummy_icon.png"
   inkscape:export-xdpi="194.35384"
   inkscape:export-ydpi="194.35384">
  <defs
     id="defs3089">
    <inkscape:perspective
       id="perspective2466"
       inkscape:persp3d-origin="230.05077 : 64.253571 : 1"
       inkscape:vp_z="460.10153 : 96.380356 : 1"
       inkscape:vp_y="0 : 1000 : 0"
       inkscape:vp_x="0 : 96.380356 : 1"
       sodipodi:type="inkscape:persp3d" />
  </defs>
  <sodipodi:namedview
     id="base"
     pagecolor="#ffffff"
     bordercolor="#666666"
     borderopacity="1.0"
     inkscape:pageopacity="0.0"
     inkscape:pageshadow="2"
     inkscape:zoom="0.24748738"
     inkscape:cx="-1055.5972"
     inkscape:cy="412.33483"
     inkscape:document-units="px"
     inkscape:current-layer="layer1"
     showgrid="false"
     inkscape:window-width="1920"
     inkscape:window-height="1017"
     inkscape:window-x="-8"
     inkscape:window-y="-8"
     inkscape:window-maximized="1"
     fit-margin-top="0"
     fit-margin-left="0"
     fit-margin-right="0"
     fit-margin-bottom="0" />
  <metadata
     id="metadata3092">
    <rdf:RDF>
      <cc:Work
         rdf:about="">
        <dc:format>image/svg+xml</dc:format>
        <dc:type
           rdf:resource="http://purl.org/dc/dcmitype/StillImage" />
        <dc:title></dc:title>
      </cc:Work>
    </rdf:RDF>
  </metadata>
  <g
     inkscape:label="Layer 1"
     inkscape:groupmode="layer"
     id="layer1"
     transform="translate(68.539833,-40.965229)">
    <path
       style="fill:#7f7f7f;stroke:none;stroke-opacity:1;fill-opacity:0.39215687"
       d="M 40.34375 112.46875 L 40.34375 668.0625 L 351.59375 668.0625 C 349.83085 666.73735 348.13591 665.36879 346.53125 663.9375 C 328.91826 651.68697 328.29073 637.99332 336.375 619.4375 C 338.92638 611.70775 344.41319 604.37374 360.5 600.375 C 362.85024 599.79079 365.35364 599.53231 368 599.53125 C 393.58145 599.52104 433.4266 624.74014 496.03125 636.46875 C 532.23627 643.25155 568.71527 649.09079 595.9375 650 L 595.9375 639.46875 C 570.81771 639.5196 555.97694 636.62874 528.90625 632.65625 C 569.16068 598.82908 607.56413 552.11707 587.15625 539.78125 C 580.92911 542.52984 595.51107 572.03143 516.875 631.125 C 502.32311 630.28019 501.08612 630.56577 489.625 627.46875 C 500.30445 617.34563 500.1994 543.60701 491 540.40625 C 474.72687 536.19964 509.93612 650.97389 462.09375 619.90625 C 431.57547 608.24525 436.55732 554.79146 438.5 537.5625 C 409.66704 575.22023 450.70683 615.63258 429.1875 608.65625 C 406.14358 597.75551 388.63774 593.64632 378.34375 594.28125 C 354.08989 539.70908 329.17718 446.30936 378.28125 409.6875 L 381.34375 410.03125 C 379.64198 408.40405 377.99087 406.72182 376.40625 405.03125 L 237.8125 401.09375 L 238.03125 393 L 369.28125 396.71875 C 364.99198 391.21724 361.30763 385.45781 358.28125 379.53125 L 234.6875 353.6875 L 236.34375 345.78125 L 354.1875 370.4375 C 351.32999 363.01405 349.52448 355.37779 348.84375 347.6875 L 252.5 305.59375 L 255.75 298.1875 L 348.5625 338.75 C 348.71254 333.53528 349.38773 328.3069 350.65625 323.125 C 352.42741 315.88918 355.24106 309.1097 358.9375 302.84375 C 354.01455 256.48761 382.51582 203.16095 382.75 202.75 C 407.40605 218.64138 430.19271 235.21034 442.46875 255.59375 C 459.72836 253.82156 478.2241 254.97465 496.90625 259.5625 C 515.87784 264.22139 533.05694 271.90764 547.6875 281.6875 C 561.16781 273.79376 577.83345 269.42919 595.9375 266.59375 L 595.9375 112.46875 L 40.34375 112.46875 z M 595.9375 266.59375 L 595.9375 394.65625 L 596.03125 394.65625 L 596.03125 266.5625 C 595.99875 266.56758 595.96999 266.58866 595.9375 266.59375 z M 595.9375 394.65625 L 593.59375 394.53125 C 590.69715 401.50163 586.79476 407.94563 582 413.8125 L 595.9375 416.90625 L 595.9375 394.65625 z M 595.9375 416.90625 L 595.9375 425.21875 L 596.03125 425.25 L 596.03125 416.9375 L 595.9375 416.90625 z M 595.9375 425.21875 L 575.71875 420.71875 C 572.31288 424.06084 568.5898 427.14487 564.59375 430 L 564.84375 430.03125 C 564.69467 430.66808 564.58382 431.26205 564.46875 431.84375 L 595.9375 443.9375 L 595.9375 425.21875 z M 595.9375 443.9375 L 595.9375 452.5625 L 596.03125 452.59375 L 596.03125 443.96875 L 595.9375 443.9375 z M 595.9375 452.5625 L 564.1875 440.375 C 565.42343 445.75666 569.96499 448.74845 576.40625 458.5 C 583.43265 461.52809 589.87805 464.43773 595.9375 467.28125 L 595.9375 452.5625 z M 595.9375 467.28125 L 595.9375 639.46875 C 595.96958 639.46869 595.99914 639.46882 596.03125 639.46875 L 596.03125 467.3125 C 596.00249 467.299 595.96628 467.29476 595.9375 467.28125 z M 595.9375 650 L 595.9375 668.0625 L 351.59375 668.0625 C 351.67734 668.12534 351.75985 668.18735 351.84375 668.25 L 596.03125 668.25 L 596.03125 650 C 596.00073 649.99899 595.96804 650.00102 595.9375 650 z M 430.09375 319.5 C 425.3087 319.76771 420.79393 323.17837 420.59375 330 C 420.1667 344.55281 441.7903 344.03873 441.46875 330.25 C 441.29793 322.92474 435.51681 319.1966 430.09375 319.5 z M 513.09375 336.34375 C 507.74194 336.32833 502.351 339.8807 502.34375 346.8125 C 502.32921 360.67611 523.62195 362.06292 523.71875 347.3125 C 523.76713 339.93729 518.44556 336.35917 513.09375 336.34375 z "
       id="rect2990"
       inkscape:export-filename="D:\git\aceim\Ace IM\design\icq_plugin.png"
       inkscape:export-xdpi="207.06978"
       inkscape:export-ydpi="207.06978"
       transform="translate(-68.539833,40.965229)" />
    <g
       id="g4313"
       transform="translate(1512.1429,-669.28571)"
       inkscape:export-filename="D:\git\aceim\Ace IM\design\icq_plugin.png"
       inkscape:export-xdpi="207.06978"
       inkscape:export-ydpi="207.06978">
      <path
         inkscape:connector-curvature="0"
         id="rect3380"
         d="m -1460.5091,1000.5379 -52.125,9.7812 c -5.2142,1.3038 -11.7167,4.5536 -19.5313,7.8125 -3.1418,1.504 -6.0125,3.1049 -8.5937,4.8125 l 0,44.375 c 1.0888,0.1482 2.2281,0.2673 3.375,0.3438 11.0801,1.3102 21.491,-0.6721 33.875,-6.5313 l 5.2187,-3.25 19.5625,-16.2812 c 7.8147,-7.1697 14.9737,-15.0024 24.75,-23.4688 l -1.9688,-4.5625 -4.5624,-13.0312 z"
         style="fill:#ff0000;fill-opacity:1;stroke:none" />
      <path
         inkscape:connector-curvature="0"
         id="rect3380-9"
         d="m -1486.9907,822.54106 c -0.1582,10.10614 2.8694,19.85391 7.4062,30.09375 l 3.2813,6.5 58,63.21875 9.75,-3.25 -13.0313,-76.90625 c -1.2243,-7.3461 -4.1647,-13.53064 -7.2187,-19.65625 l -58.1875,0 z m 111.0312,0 0,0.0937 0.6563,26.09375 6.5313,73.625 c 6.5177,3.2587 13.0403,6.50006 18.9062,11.0625 l 58.625,-71.6875 c 3.9107,-5.85943 7.1743,-12.36158 9.7812,-19.53125 l 1.9688,-14.34375 c 0,-1.80448 -0.1102,-3.57348 -0.2812,-5.3125 l -96.1876,0 z m 145.0938,66.75 c -8.6138,0.0611 -17.0449,1.77686 -25.8438,5.6875 l -7.8124,3.25 -65.8126,54.75 -2.5937,3.25 1.2813,1.9375 1.3124,4.5625 80.1563,-9.78125 c 7.8212,-1.29699 14.9891,-2.58478 21.5,-5.84375 16.2878,-7.1694 26.0626,-16.29913 30.625,-28.03125 l 1.3125,-6.5 -2.625,-8.46875 c -3.904,-7.82114 -11.7324,-13.04027 -22.8125,-14.34375 -2.933,-0.32587 -5.8162,-0.48912 -8.6875,-0.46875 z m -302.9375,3.5 c -2.1854,-0.0111 -4.3326,0.1068 -6.4687,0.40625 l 0,79.90625 82.875,-10.34375 c 1.9555,-6.51794 5.2233,-13.05132 10.4374,-19.5625 l -57.3437,-41.6875 -17.625,-7.1875 c -4.0736,-1.01843 -8.0173,-1.51156 -11.875,-1.53125 z m 305.125,102.53125 -26.0625,0.65625 -73.625,6.50004 -1.9688,7.8437 -4.5624,9.7813 68.4062,56.6874 c 4.569,5.2075 9.7727,8.4578 17.5938,10.4063 13.0356,4.5624 24.7681,3.2677 36.5,-3.25 11.0804,-5.2077 18.8973,-14.9892 22.1562,-28.0312 l 1.9688,-13.0313 c 0,-11.0801 -3.2701,-20.8303 -9.7813,-28 -5.2074,-9.7699 -14.3172,-15.64727 -24.0937,-18.90624 l -6.5313,-0.65625 z m -129.0313,47.56249 -8.4687,4.5625 -11.0625,3.9063 9.7812,56.7187 7.8126,21.5 c 7.1629,15.6425 16.929,25.4105 29.3124,28.6562 5.2075,0.6583 10.4376,0.665 15,-2.5937 7.8147,-3.259 11.7279,-11.7369 13.0313,-23.4688 1.3035,-12.3836 -1.9778,-22.7946 -7.8437,-33.875 l -3.25,-6.5312 -16.9376,-20.8438 -27.375,-28.0312 z m -70.375,1.3125 -54.7187,65.1875 c -5.2142,5.2074 -8.4778,11.7323 -9.7813,18.25 l -3.2812,14.9687 c 0,7.8212 2.6163,15.6386 5.875,22.1563 5.2142,10.4284 15.0024,18.2545 28.0312,21.5 11.7319,3.259 24.1185,1.9552 35.8438,-4.5625 11.7254,-5.2142 19.5312,-15.0002 24.0938,-26.7188 l 0.6562,-6.5 0,-26.0937 c -3.2587,-25.4124 -5.2278,-48.871 -6.5312,-71.0312 -7.1694,-0.6518 -13.6698,-3.9041 -20.1876,-7.1563 z"
         style="fill:#00ff00;fill-opacity:1;stroke:none" />
      <path
         id="rect3380-7"
         d="m -1515.9857,822.64114 c -0.3242,14.57571 3.3252,28.86246 10.9687,43.125 l 4.5625,6.5 -15.6562,-5.21875 c -8.4978,-1.9835 -16.7615,-2.6016 -24.875,-1.875 l 0,28.125 c 5.9069,-0.82806 11.9624,-0.47036 18.3437,1.125 l 17.625,7.1875 57.3437,41.6875 c -5.2141,6.51118 -8.4819,13.04456 -10.4374,19.5625 l -82.875,10.34375 0,49.84376 c 2.5812,-1.7076 5.4519,-3.3085 8.5937,-4.8125 7.8146,-3.259 14.3171,-6.5088 19.5313,-7.8125 l 52.125,-9.7813 4.5624,13.0313 1.9688,4.5625 c -9.7763,8.4664 -16.9353,16.2991 -24.75,23.4687 l -19.5625,16.2813 -5.2187,3.25 c -12.384,5.8592 -22.7949,7.8415 -33.875,6.5312 -1.1469,-0.077 -2.2862,-0.1955 -3.375,-0.3437 l 0,28.0625 c 11.3993,1.332 23.271,0.4351 35.9374,-3.625 l -11.7187,19.5312 -3.2813,8.4688 c -6.5111,20.8499 -4.5578,39.112 5.2188,58 4.5624,7.1694 9.7858,13.6785 15,19.5312 7.8211,7.1694 17.5807,11.7411 29.3125,15 19.5465,5.2074 39.1052,4.5824 58,-5.1875 18.2495,-9.7834 29.9778,-25.4467 35.8437,-45 l 0.6563,-3.9062 c 12.3771,13.6938 24.1209,22.835 37.1563,26.0937 13.0288,3.9107 26.0493,3.2589 37.7812,-4.5625 11.0801,-6.5176 18.9018,-17.6007 22.8125,-31.2812 3.2587,-14.3391 3.2587,-28.6812 0,-44.9688 6.5109,4.5625 13.0227,7.8193 20.8437,9.7813 20.85,6.5176 39.094,5.8323 57.3438,-3.9375 17.5978,-9.7699 29.3215,-25.3955 35.1875,-45.5938 5.2141,-19.5465 3.9017,-38.4377 -5.875,-56.6875 l -3.25,-5.2187 c -5.2142,-7.82116 -10.4285,-15.63634 -18.25,-20.84376 -6.5109,-4.56245 -14.3306,-7.83506 -21.5,-11.09375 20.205,-9.77663 34.5448,-23.46445 41.0625,-41.0625 4.5624,-14.3388 3.268,-26.0494 -3.25,-37.78125 l 0,-1.3125 c -7.8146,-13.0356 -18.2437,-21.50681 -34.5312,-26.0625 -9.7767,-1.95522 -20.8552,-1.96424 -30.625,-1.3125 l -21.5,4.5625 7.1562,-16.28125 c 2.977,-9.52333 4.183,-18.90293 3.5625,-28.09375 l -28.5937,0 c 0.171,1.73902 0.2812,3.50802 0.2812,5.3125 l -1.9688,14.34375 c -2.6069,7.16967 -5.8705,13.67181 -9.7812,19.53125 l -58.625,71.6875 c -5.8659,-4.56244 -12.3885,-7.8038 -18.9062,-11.0625 l -6.5313,-73.625 -0.6563,-26.09375 0,-0.0937 -52.8437,0 c 3.054,6.12561 5.9944,12.31015 7.2187,19.65625 l 13.0313,76.90625 -9.75,3.25 -58,-63.21875 -3.2813,-6.5 c -4.5368,-10.23984 -7.5644,-19.98761 -7.4062,-30.09375 l -28.2812,0 z m 284.4062,66.75 c 2.8713,-0.0204 5.7545,0.14288 8.6875,0.46875 11.0801,1.30348 18.9085,6.52261 22.8125,14.34375 l 2.625,8.46875 -1.3125,6.5 c -4.5624,11.73212 -14.3372,20.86185 -30.625,28.03125 -6.5109,3.25897 -13.6788,4.54676 -21.5,5.84375 l -80.1563,9.78125 -1.3124,-4.5625 -1.2813,-1.9375 2.5937,-3.25 65.8126,-54.75 7.8124,-3.25 c 8.7989,-3.91064 17.23,-5.62639 25.8438,-5.6875 z m -161.375,55.875 c 11.7319,0 22.7994,4.55611 29.9688,11.71875 9.1249,9.12489 13.0312,18.89964 13.0312,30.625 0,11.72509 -3.9063,22.80361 -13.0312,30.62501 -8.4732,8.4664 -18.2369,13.0312 -29.9688,13.0312 -12.3836,0 -22.8103,-4.5648 -30.625,-13.0312 -8.4731,-7.8214 -13.0312,-18.89992 -13.0312,-30.62501 0,-11.72536 4.5581,-21.50011 13.0312,-30.625 7.8147,-7.1694 18.2414,-11.71875 30.625,-11.71875 z m 163.5625,50.15625 6.5313,0.65625 c 9.7765,3.25897 18.8863,9.13636 24.0937,18.90626 6.5112,7.1697 9.7813,16.9199 9.7813,28 l -1.9688,13.0312 c -3.2589,13.0421 -11.0758,22.8236 -22.1562,28.0313 -11.7319,6.5176 -23.4644,7.8124 -36.5,3.25 -7.8211,-1.9485 -13.0248,-5.1989 -17.5938,-10.4063 l -68.4062,-56.6875 4.5624,-9.7812 1.9688,-7.8438 73.625,-6.49996 26.0625,-0.65625 z m -129.0313,47.56251 27.375,28.0312 16.9376,20.8438 3.25,6.5312 c 5.8659,11.0804 9.1472,21.4914 7.8437,33.875 -1.3034,11.7319 -5.2166,20.2098 -13.0313,23.4688 -4.5624,3.2587 -9.7925,3.2519 -15,2.5937 -12.3834,-3.2457 -22.1495,-13.0137 -29.3124,-28.6562 l -7.8126,-21.5 -9.7812,-56.7188 11.0625,-3.9062 8.4687,-4.5625 z m -70.375,1.3125 c 6.5178,3.2522 13.0182,6.5045 20.1876,7.1562 1.3034,22.1602 3.2725,45.6188 6.5312,71.0313 l 0,26.0937 -0.6562,6.5 c -4.5626,11.7186 -12.3684,21.5046 -24.0938,26.7188 -11.7253,6.5176 -24.1119,7.8214 -35.8438,4.5625 -13.0288,-3.2455 -22.817,-11.0717 -28.0312,-21.5 -3.2587,-6.5177 -5.875,-14.3351 -5.875,-22.1563 l 3.2812,-14.9687 c 1.3035,-6.5177 4.5671,-13.0426 9.7813,-18.25 l 54.7187,-65.1875 z"
         style="fill:#000000;fill-opacity:1;stroke:none"
         inkscape:connector-curvature="0" />
      <path
         id="path2459-0"
         style="fill:#fdfb12"
         d="m -1423.5795,956.98178 c 7.8147,-7.1694 18.243,-11.72509 30.6266,-11.72509 11.7319,0 22.8055,4.56245 29.9749,11.72509 9.1249,9.12489 13.0353,18.90152 13.0353,30.62688 0,11.72509 -3.9104,22.80524 -13.0353,30.62664 -8.4732,8.4664 -18.243,13.0288 -29.9749,13.0288 -12.3836,0 -22.8119,-4.5624 -30.6266,-13.0288 -8.4731,-7.8214 -13.0288,-18.90155 -13.0288,-30.62664 0,-11.72536 4.5557,-21.50199 13.0288,-30.62688 l 0,0 z"
         inkscape:connector-curvature="0" />
    </g>
  </g>
</svg>
