<?xml version="1.0" encoding="UTF-8" standalone="no"?>
<!-- Created with Inkscape (http://www.inkscape.org/) -->

<svg
   xmlns:dc="http://purl.org/dc/elements/1.1/"
   xmlns:cc="http://creativecommons.org/ns#"
   xmlns:rdf="http://www.w3.org/1999/02/22-rdf-syntax-ns#"
   xmlns:svg="http://www.w3.org/2000/svg"
   xmlns="http://www.w3.org/2000/svg"
   xmlns:sodipodi="http://sodipodi.sourceforge.net/DTD/sodipodi-0.dtd"
   xmlns:inkscape="http://www.inkscape.org/namespaces/inkscape"
   width="959.93677"
   height="959.93677"
   id="svg3087"
   version="1.1"
   inkscape:version="0.48.4 r9939"
   sodipodi:docname="logo.svg"
   inkscape:export-filename="F:\asia-wp7-3\logo-150.png"
   inkscape:export-xdpi="14.063426"
   inkscape:export-ydpi="14.063426">
  <defs
     id="defs3089" />
  <sodipodi:namedview
     id="base"
     pagecolor="#ffffff"
     bordercolor="#666666"
     borderopacity="1.0"
     inkscape:pageopacity="0.0"
     inkscape:pageshadow="2"
     inkscape:zoom="0.9899495"
     inkscape:cx="185.69617"
     inkscape:cy="480.93055"
     inkscape:document-units="px"
     inkscape:current-layer="layer1"
     showgrid="false"
     inkscape:window-width="1920"
     inkscape:window-height="1017"
     inkscape:window-x="-8"
     inkscape:window-y="-8"
     inkscape:window-maximized="1"
     fit-margin-top="0"
     fit-margin-left="0"
     fit-margin-right="0"
     fit-margin-bottom="0" />
  <metadata
     id="metadata3092">
    <rdf:RDF>
      <cc:Work
         rdf:about="">
        <dc:format>image/svg+xml</dc:format>
        <dc:type
           rdf:resource="http://purl.org/dc/dcmitype/StillImage" />
        <dc:title></dc:title>
      </cc:Work>
    </rdf:RDF>
  </metadata>
  <g
     inkscape:label="Layer 1"
     inkscape:groupmode="layer"
     id="layer1"
     transform="translate(68.539833,-40.965229)">
    <rect
       style="fill:none;stroke:#000000;stroke-opacity:1"
       id="rect2990"
       width="959.93677"
       height="959.93677"
       x="-1252.4386"
       y="-13.583009" />
    <path
       style="fill:#c8c8c8;fill-opacity:1;stroke:#000000;stroke-width:0;stroke-linecap:butt;stroke-linejoin:miter;stroke-miterlimit:4;stroke-opacity:0.45175440000000000;stroke-dasharray:none"
       d="m 382.75,202.75 c -0.23418,0.41095 -28.73545,53.73761 -23.8125,100.09375 -3.69644,6.26595 -6.51009,13.04543 -8.28125,20.28125 -1.26852,5.1819 -1.94371,10.41028 -2.09375,15.625 l -92.8125,-40.5625 -3.25,7.40625 96.34375,42.09375 c 0.68073,7.69029 2.48624,15.32655 5.34375,22.75 l -117.84375,-24.65625 -1.65625,7.90625 123.59375,25.84375 c 3.02638,5.92656 6.71073,11.68599 11,17.1875 L 238.03125,393 l -0.21875,8.09375 138.59375,3.9375 c 1.58462,1.69057 3.23573,3.3728 4.9375,5 l -3.0625,-0.34375 c -49.10407,36.62186 -24.20306,130.03555 0.0508,184.60772 10.29399,-0.63493 27.82014,3.46331 50.86406,14.36405 21.51933,6.97633 -19.52824,-33.42968 9.30472,-71.08741 -1.94268,17.22896 -6.91596,70.67641 23.60232,82.33741 47.84237,31.06764 12.62376,-83.70963 28.89689,-79.50302 9.1994,3.20076 9.31618,76.93304 -1.36327,87.05616 11.46112,3.09702 12.69812,2.83254 27.25001,3.67735 78.63607,-59.09357 64.03222,-88.60531 70.25936,-91.3539 20.40788,12.33582 -17.97512,59.02831 -58.22955,92.85548 39.67747,5.82247 53.01037,9.34689 111.08201,4.64149 -4.73134,21.65185 -74.88635,12.12783 -143.96731,-0.81408 C 426.9503,623.52684 385.56925,594.14347 360.5,600.375 c -16.08681,3.99874 -21.57362,11.33275 -24.125,19.0625 -8.08427,18.55582 -7.45674,32.24947 10.15625,44.5 14.67045,13.08543 36.10991,21.64464 60.90625,27.96875 87.13382,18.60786 191.9308,24.59824 261.46875,-17.78125 20.53103,-21.79208 19.56359,-37.94125 20.96875,-60.5 -0.50135,-23.20026 -3.15495,-53.58643 -21.03125,-88.03125 C 651.32879,496.04672 627.16556,480.3752 576.40625,458.5 569.96499,448.74845 565.42343,445.75666 564.1875,440.375 L 672.625,482 l 2.875,-7.53125 -111.03125,-42.625 c 0.11507,-0.5817 0.22592,-1.17567 0.375,-1.8125 l -0.25,-0.0312 c 3.99605,-2.85513 7.71913,-5.93916 11.125,-9.28125 L 683.625,444.75 685.375,436.84375 582,413.8125 c 4.79476,-5.86687 8.69715,-12.31087 11.59375,-19.28125 l 93.5,4.75 0.40625,-8.0625 -91.09375,-4.625 c 0.28125,-0.97471 0.53842,-1.9455 0.78125,-2.9375 1.74163,-7.1144 2.40539,-14.29023 2.0625,-21.4375 25.22442,-38.84396 24.58016,-98.49919 24.5625,-98.96875 -28.62121,2.61336 -55.9378,6.61636 -76.125,18.4375 -14.63056,-9.77986 -31.80966,-17.46611 -50.78125,-22.125 -18.68215,-4.58785 -37.17789,-5.74094 -54.4375,-3.96875 C 430.19271,235.21034 407.40605,218.64138 382.75,202.75 z m 58.70669,127.49746 c 0.32155,13.78873 -21.28808,14.30027 -20.86103,-0.25254 0.42705,-14.55281 20.53949,-13.53619 20.86103,0.25254 z m 82.26523,17.07519 c -0.0968,14.75042 -21.38065,13.35854 -21.36611,-0.50507 0.0145,-13.86361 21.46287,-14.24535 21.36611,0.50507 z"
       transform="translate(-68.539833,40.965229)"
       id="path2382"
       inkscape:connector-curvature="0"
       sodipodi:nodetypes="cccccccccccccccccccccccccccsscccccccccccccccccccccccccscczzzzzz"
       inkscape:export-filename="D:\git\aceim\Ace IM\design\aceim32.png"
       inkscape:export-xdpi="5.7202983"
       inkscape:export-ydpi="5.7202983" />
  </g>
</svg>
