<?xml version="1.0" encoding="UTF-8" standalone="no"?>
<!-- Created with Inkscape (http://www.inkscape.org/) -->

<svg
   xmlns:dc="http://purl.org/dc/elements/1.1/"
   xmlns:cc="http://creativecommons.org/ns#"
   xmlns:rdf="http://www.w3.org/1999/02/22-rdf-syntax-ns#"
   xmlns:svg="http://www.w3.org/2000/svg"
   xmlns="http://www.w3.org/2000/svg"
   xmlns:sodipodi="http://sodipodi.sourceforge.net/DTD/sodipodi-0.dtd"
   xmlns:inkscape="http://www.inkscape.org/namespaces/inkscape"
   width="1024"
   height="500"
   id="svg3087"
   version="1.1"
   inkscape:version="0.48.4 r9939"
   sodipodi:docname="logo_pic.svg"
   inkscape:export-filename="F:\asia-wp7-3\logo-150.png"
   inkscape:export-xdpi="14.063426"
   inkscape:export-ydpi="14.063426">
  <defs
     id="defs3089" />
  <sodipodi:namedview
     id="base"
     pagecolor="#ffffff"
     bordercolor="#666666"
     borderopacity="1.0"
     inkscape:pageopacity="0.0"
     inkscape:pageshadow="2"
     inkscape:zoom="0.7"
     inkscape:cx="656.51129"
     inkscape:cy="382.60679"
     inkscape:document-units="px"
     inkscape:current-layer="layer1"
     showgrid="false"
     inkscape:window-width="1920"
     inkscape:window-height="1027"
     inkscape:window-x="-8"
     inkscape:window-y="-8"
     inkscape:window-maximized="1"
     fit-margin-top="0"
     fit-margin-left="0"
     fit-margin-right="0"
     fit-margin-bottom="0" />
  <metadata
     id="metadata3092">
    <rdf:RDF>
      <cc:Work
         rdf:about="">
        <dc:format>image/svg+xml</dc:format>
        <dc:type
           rdf:resource="http://purl.org/dc/dcmitype/StillImage" />
        <dc:title></dc:title>
      </cc:Work>
    </rdf:RDF>
  </metadata>
  <g
     inkscape:label="Layer 1"
     inkscape:groupmode="layer"
     id="layer1"
     transform="translate(68.539833,-500.902)">
    <rect
       style="fill:#000000;fill-opacity:1;stroke:none"
       id="rect3011"
       width="1024.2858"
       height="500"
       x="0"
       y="3.3335032e-006"
       transform="translate(-68.539833,500.902)"
       inkscape:export-filename="C:\git\aceim\Ace IM\design\logo_pic.png"
       inkscape:export-xdpi="90"
       inkscape:export-ydpi="90" />
    <path
       style="fill:#ffffff;fill-opacity:1;stroke:#000000;stroke-width:0;stroke-linecap:butt;stroke-linejoin:miter;stroke-miterlimit:4;stroke-opacity:0.45175440000000000;stroke-dasharray:none"
       d="m 362.71573,539.3454 c -0.19696,0.34564 -24.16841,45.19688 -20.02788,84.18546 -3.10895,5.27007 -5.47542,10.97206 -6.96508,17.05787 -1.06691,4.35832 -1.63479,8.75573 -1.76098,13.14165 l -78.06145,-34.11574 -2.73346,6.22915 81.03146,35.40362 c 0.57254,6.46804 2.09109,12.89064 4.49445,19.13426 l -99.11438,-20.73754 -1.39302,6.64968 103.95051,21.7363 c 2.54539,4.98463 5.64417,9.82869 9.25173,14.45582 l -110.38993,-3.12771 -0.18398,6.80738 116.5665,3.3117 c 1.33277,1.42188 2.72146,2.83674 4.15277,4.20533 l -2.57577,-0.28912 c -41.29977,30.8014 -20.35637,109.36849 0.0427,155.26729 8.65792,-0.53402 23.39857,2.91287 42.78003,12.08111 18.09918,5.86756 -16.42454,-28.11657 7.82589,-59.7892 -1.63393,14.49069 -5.81678,59.44353 19.85111,69.2512 40.23859,26.12993 10.61741,-70.40533 24.30419,-66.8673 7.7373,2.69206 7.83552,64.70577 -1.1466,73.21999 9.63956,2.6048 10.67996,2.38235 22.91906,3.09289 66.13813,-49.7016 53.85533,-74.52292 59.09276,-76.83466 17.16438,10.37524 -15.11826,49.6467 -48.9749,78.09759 33.37138,4.89708 44.58523,7.86135 93.42731,3.9038 -3.97937,18.21064 -62.98436,10.20031 -121.08602,-0.6847 -58.10167,-10.885 -92.90587,-35.59835 -113.99077,-30.35722 -13.53007,3.3632 -18.14483,9.53159 -20.29071,16.03282 -6.79941,15.60667 -6.27162,27.12393 8.54207,37.42744 12.33882,11.00571 30.37082,18.20457 51.22618,23.52356 73.2853,15.65044 161.42649,20.68875 219.9125,-14.9552 17.26795,-18.32858 16.45427,-31.9111 17.6361,-50.8845 -0.42167,-19.51295 -2.65352,-45.06973 -17.68867,-74.0401 -14.73124,-24.851 -35.05411,-38.03178 -77.74604,-56.43027 -5.41753,-8.2017 -9.23728,-10.71799 -10.27678,-15.24433 l 91.2031,35.00938 2.41807,-6.33428 -93.38462,-35.85044 c 0.0968,-0.48925 0.19001,-0.98882 0.3154,-1.52443 l -0.21027,-0.0262 c 3.36094,-2.40136 6.4923,-4.99523 9.35686,-7.80615 l 90.75629,20.21183 1.47186,-6.64968 -86.9452,-19.3708 c 4.03271,-4.93443 7.31488,-10.35426 9.75111,-16.21681 l 78.63968,3.99507 0.34168,-6.7811 -76.61586,-3.88993 c 0.23655,-0.8198 0.45284,-1.63629 0.65708,-2.47063 1.46483,-5.98368 2.02309,-12.01903 1.7347,-18.03036 21.2154,-32.67033 20.67354,-82.84432 20.65868,-83.23925 -24.07232,2.19801 -47.04738,5.56479 -64.02615,15.50715 -12.30527,-8.22551 -26.75403,-14.69015 -42.71039,-18.60858 -15.71292,-3.85869 -31.26906,-4.82851 -45.78553,-3.33799 -10.32496,-17.14379 -29.49005,-31.07938 -50.22742,-44.44508 z m 49.37621,107.23379 c 0.27044,11.59723 -17.90468,12.02747 -17.5455,-0.21241 0.35917,-12.23987 17.27506,-11.38483 17.5455,0.21241 z m 69.19049,14.36136 c -0.0814,12.40608 -17.98254,11.23541 -17.97031,-0.4248 0.0122,-11.66021 18.0517,-11.98128 17.97031,0.4248 z"
       id="path2382"
       inkscape:connector-curvature="0"
       sodipodi:nodetypes="cccccccccccccccccccccccccccsscccccccccccccccccccccccccscczzzzzz"
       inkscape:export-filename="C:\git\aceim\Ace IM\design\logo_pic.png"
       inkscape:export-xdpi="90"
       inkscape:export-ydpi="90" />
  </g>
</svg>
