<?xml version="1.0" encoding="UTF-8" standalone="no"?>
<!-- Created with Inkscape (http://www.inkscape.org/) -->

<svg
   xmlns:dc="http://purl.org/dc/elements/1.1/"
   xmlns:cc="http://creativecommons.org/ns#"
   xmlns:rdf="http://www.w3.org/1999/02/22-rdf-syntax-ns#"
   xmlns:svg="http://www.w3.org/2000/svg"
   xmlns="http://www.w3.org/2000/svg"
   xmlns:sodipodi="http://sodipodi.sourceforge.net/DTD/sodipodi-0.dtd"
   xmlns:inkscape="http://www.inkscape.org/namespaces/inkscape"
   width="959.93677"
   height="959.93677"
   id="svg3087"
   version="1.1"
   inkscape:version="0.48.4 r9939"
   sodipodi:docname="ragefaces_plugin_icon.svg"
   inkscape:export-filename="D:\studyworkspace\Ace IM\res\drawable-xxhdpi\dummy_icon.png"
   inkscape:export-xdpi="194.35384"
   inkscape:export-ydpi="194.35384">
  <defs
     id="defs3089" />
  <sodipodi:namedview
     id="base"
     pagecolor="#ffffff"
     bordercolor="#666666"
     borderopacity="1.0"
     inkscape:pageopacity="0.0"
     inkscape:pageshadow="2"
     inkscape:zoom="0.35"
     inkscape:cx="578.83041"
     inkscape:cy="108.27935"
     inkscape:document-units="px"
     inkscape:current-layer="layer1"
     showgrid="false"
     inkscape:window-width="1920"
     inkscape:window-height="1017"
     inkscape:window-x="-8"
     inkscape:window-y="-8"
     inkscape:window-maximized="1"
     fit-margin-top="0"
     fit-margin-left="0"
     fit-margin-right="0"
     fit-margin-bottom="0" />
  <metadata
     id="metadata3092">
    <rdf:RDF>
      <cc:Work
         rdf:about="">
        <dc:format>image/svg+xml</dc:format>
        <dc:type
           rdf:resource="http://purl.org/dc/dcmitype/StillImage" />
        <dc:title></dc:title>
      </cc:Work>
    </rdf:RDF>
  </metadata>
  <g
     inkscape:label="Layer 1"
     inkscape:groupmode="layer"
     id="layer1"
     transform="translate(68.539833,-40.965229)">
    <path
       style="fill:#7f7f7f;stroke:none;stroke-opacity:1;fill-opacity:0.39215687"
       d="M 40.34375 112.46875 L 40.34375 668.0625 L 351.59375 668.0625 C 349.83085 666.73735 348.13591 665.36879 346.53125 663.9375 C 328.91826 651.68697 328.29073 637.99332 336.375 619.4375 C 338.92638 611.70775 344.41319 604.37374 360.5 600.375 C 362.85024 599.79079 365.35364 599.53231 368 599.53125 C 393.58145 599.52104 433.4266 624.74014 496.03125 636.46875 C 532.23627 643.25155 568.71527 649.09079 595.9375 650 L 595.9375 639.46875 C 570.81771 639.5196 555.97694 636.62874 528.90625 632.65625 C 569.16068 598.82908 607.56413 552.11707 587.15625 539.78125 C 580.92911 542.52984 595.51107 572.03143 516.875 631.125 C 502.32311 630.28019 501.08612 630.56577 489.625 627.46875 C 500.30445 617.34563 500.1994 543.60701 491 540.40625 C 474.72687 536.19964 509.93612 650.97389 462.09375 619.90625 C 431.57547 608.24525 436.55732 554.79146 438.5 537.5625 C 409.66704 575.22023 450.70683 615.63258 429.1875 608.65625 C 406.14358 597.75551 388.63774 593.64632 378.34375 594.28125 C 354.08989 539.70908 329.17718 446.30936 378.28125 409.6875 L 381.34375 410.03125 C 379.64198 408.40405 377.99087 406.72182 376.40625 405.03125 L 237.8125 401.09375 L 238.03125 393 L 369.28125 396.71875 C 364.99198 391.21724 361.30763 385.45781 358.28125 379.53125 L 234.6875 353.6875 L 236.34375 345.78125 L 354.1875 370.4375 C 351.32999 363.01405 349.52448 355.37779 348.84375 347.6875 L 252.5 305.59375 L 255.75 298.1875 L 348.5625 338.75 C 348.71254 333.53528 349.38773 328.3069 350.65625 323.125 C 352.42741 315.88918 355.24106 309.1097 358.9375 302.84375 C 354.01455 256.48761 382.51582 203.16095 382.75 202.75 C 407.40605 218.64138 430.19271 235.21034 442.46875 255.59375 C 459.72836 253.82156 478.2241 254.97465 496.90625 259.5625 C 515.87784 264.22139 533.05694 271.90764 547.6875 281.6875 C 561.16781 273.79376 577.83345 269.42919 595.9375 266.59375 L 595.9375 112.46875 L 40.34375 112.46875 z M 595.9375 266.59375 L 595.9375 394.65625 L 596.03125 394.65625 L 596.03125 266.5625 C 595.99875 266.56758 595.96999 266.58866 595.9375 266.59375 z M 595.9375 394.65625 L 593.59375 394.53125 C 590.69715 401.50163 586.79476 407.94563 582 413.8125 L 595.9375 416.90625 L 595.9375 394.65625 z M 595.9375 416.90625 L 595.9375 425.21875 L 596.03125 425.25 L 596.03125 416.9375 L 595.9375 416.90625 z M 595.9375 425.21875 L 575.71875 420.71875 C 572.31288 424.06084 568.5898 427.14487 564.59375 430 L 564.84375 430.03125 C 564.69467 430.66808 564.58382 431.26205 564.46875 431.84375 L 595.9375 443.9375 L 595.9375 425.21875 z M 595.9375 443.9375 L 595.9375 452.5625 L 596.03125 452.59375 L 596.03125 443.96875 L 595.9375 443.9375 z M 595.9375 452.5625 L 564.1875 440.375 C 565.42343 445.75666 569.96499 448.74845 576.40625 458.5 C 583.43265 461.52809 589.87805 464.43773 595.9375 467.28125 L 595.9375 452.5625 z M 595.9375 467.28125 L 595.9375 639.46875 C 595.96958 639.46869 595.99914 639.46882 596.03125 639.46875 L 596.03125 467.3125 C 596.00249 467.299 595.96628 467.29476 595.9375 467.28125 z M 595.9375 650 L 595.9375 668.0625 L 351.59375 668.0625 C 351.67734 668.12534 351.75985 668.18735 351.84375 668.25 L 596.03125 668.25 L 596.03125 650 C 596.00073 649.99899 595.96804 650.00102 595.9375 650 z M 430.09375 319.5 C 425.3087 319.76771 420.79393 323.17837 420.59375 330 C 420.1667 344.55281 441.7903 344.03873 441.46875 330.25 C 441.29793 322.92474 435.51681 319.1966 430.09375 319.5 z M 513.09375 336.34375 C 507.74194 336.32833 502.351 339.8807 502.34375 346.8125 C 502.32921 360.67611 523.62195 362.06292 523.71875 347.3125 C 523.76713 339.93729 518.44556 336.35917 513.09375 336.34375 z "
       transform="translate(-68.539833,40.965229)"
       id="rect2990"
       inkscape:export-filename="D:\git\aceim\Ace IM\design\ragefaces_plugin.png"
       inkscape:export-xdpi="207.16098"
       inkscape:export-ydpi="207.16098" />
    <g
       id="g5024"
       transform="matrix(0.76516631,0,0,0.76516631,889.57262,-118.69229)"
       inkscape:export-filename="D:\git\aceim\Ace IM\design\ragefaces_plugin.png"
       inkscape:export-xdpi="207"
       inkscape:export-ydpi="207">
      <path
         id="path4806"
         d="m -950.46125,358.40199 -125.33755,0 1.9125,0.8125 c 5.35,0.4625 10.7375,0.3875 16.1,0.4375 30.85,0.0125 61.70005,-0.0125 92.55005,0 5.55,0.0875 11.1125,0.0625 16.65,-0.4875 l -1.875,-0.7625 z"
         inkscape:connector-curvature="0"
         style="fill:#636363" />
      <path
         id="path4812"
         d="m -933.39875,360.76449 c -5.075,-0.3625 -10.1375,-0.975 -15.1875,-1.6 -5.5375,0.55 -11.1,0.575 -16.65,0.4875 -30.85,-0.0125 -61.70005,0.0125 -92.55005,0 -5.3625,-0.05 -10.75,0.025 -16.1,-0.4375 -11.1625,0.05 -22.2375,3.25 -32.05,8.475 -15.3625,8.2875 -26.825,22.1875 -35.3875,37.1375 -5.6125,9.6875 -6.9375,21.2375 -12.725,30.85 -4.35,7.225 -11.4125,12.125 -17.9,17.2625 -6.0875,4.7 -11.175,10.525 -16.5625,15.9875 -4.2,4.55 -8.6875,8.9875 -11.725,14.45 l 0,42.4625 c 3.525,1.6 4.3875,5.55 6.2625,8.5625 8.2875,14.5625 22.0125,24.8375 31.6125,38.3875 7.2375,10.175 10.55,22.4625 17.25,32.9375 4.125,6.5375 9.9875,11.6875 15.675,16.825 17.85,15.35 37.7,28.325 58.7,38.9375 17.0375,8.8 35.9875,13.025 53.0625,21.75 13.0625,6.5125 25.22505,14.9375 39.02505,19.9125 25.25,8.45 52.5875,8.7375 77.425,18.675 1.875,0.8375 3.925,1.13745 5.975,1.08755 25,-0.0625 50,0 75.0125,-0.025 3.5,0.2 6.3375,-2.13755 9.375,-3.52505 13.05,-6.725 26.7875,-14.025 35.1,-26.6125 6.7375,-10.0625 6.8625,-22.7 6.45,-34.3625 -1.2375,-25.55 -6.875,-50.7125 -7.575,-76.3125 -0.125,-11.925 -0.0625,-24.4 4.85,-35.5125 4.9375,-11.675 14.2875,-21.075 18.05,-33.2875 l 0,-43.35 -0.0125,1.5625 c -5.1875,-15.2625 -22.2625,-20.975 -29.825,-34.5375 -4.3375,-7.45 -4.1875,-16.4 -3.225,-24.7 -11.7125,-17.75 -30.9625,-28.825 -50.8,-35.2625 -30.8875,-10.05 -63.475,-12.5875 -95.55,-16.225 m 14.425,12.15 c 13.025,0.9125 27.7625,-1.325 38.8875,7.0625 8.825,-0.3375 17.7875,-0.425 26.425,1.6625 22.4125,5.0125 42.05,18.7 57.3125,35.5125 -2.0625,7.4 -2.5875,15.675 1.1125,22.675 6.8625,13.5125 23.45,18.4125 30.2,32 4.4625,11.15 4.925,23.9125 1.1125,35.3125 -3.1625,10.1625 -9.5,18.85 -14.325,28.225 -5,9.4 -6.6,20.125 -7.675,30.5875 -3.175,37.625 7.05,74.8 5.8,112.4 -4.675,10.4375 -12.8625,19.125 -22.3625,25.4 -13.3375,8.8875 -29.5,12.4625 -45.35,12.8625 -24.4625,1.1 -48.575,-4.5875 -71.8625,-11.525 -13.6375,-3.95 -27.1875,-8.5125 -41.275,-10.6 -5.6125,-0.8 -11.3875,2.05 -16.8,-0.375 -10.1375,-3.7875 -19.4375,-9.4 -28.93755,-14.5 -23.8375,-13.0375 -49.4625,-22.3875 -73.425,-35.175 -15.225,-8.2 -30,-17.775 -41.85,-30.5 -17.3375,-18.55 -27.5625,-42.225 -43.25,-62.0125 3.6625,-1.3 7.2625,5.775 9.6625,1.325 -1.4125,-1.7 -3.9125,-1.875 -5.8,-2.875 -13.8625,-5.3625 -25.2875,-17.3125 -28.7,-31.95 -7.1,-28.1375 12.4875,-60.4 41.3875,-65.4625 -2.3875,-0.675 -4.7375,-1.4875 -7.0625,-2.375 2.2,-3.2375 5.1,-5.9125 7.375,-9.1 11.825,-16.1625 17.2125,-36.125 29.6375,-51.9125 5.1875,-6.475 11.5875,-12.3 19.5125,-15.125 13.5875,-5.0125 28.2625,-5.2375 42.55,-6.1125 45.9375,-2.2125 91.91255,0.9375 137.70005,4.575 z"
         inkscape:connector-curvature="0"
         style="fill:#000000" />
      <path
         id="path4814"
         d="m -918.97375,372.91449 c -45.7875,-3.6375 -91.76255,-6.7875 -137.70005,-4.575 -14.2875,0.875 -28.9625,1.1 -42.55,6.1125 -7.925,2.825 -14.325,8.65 -19.5125,15.125 -12.425,15.7875 -17.8125,35.75 -29.6375,51.9125 -2.275,3.1875 -5.175,5.8625 -7.375,9.1 2.325,0.8875 4.675,1.7 7.0625,2.375 -28.9,5.0625 -48.4875,37.325 -41.3875,65.4625 3.4125,14.6375 14.8375,26.5875 28.7,31.95 1.8875,1 4.3875,1.175 5.8,2.875 -2.4,4.45 -6,-2.625 -9.6625,-1.325 15.6875,19.7875 25.9125,43.4625 43.25,62.0125 11.85,12.725 26.625,22.3 41.85,30.5 23.9625,12.7875 49.5875,22.1375 73.425,35.175 9.50005,5.1 18.80005,10.7125 28.93755,14.5 5.4125,2.425 11.1875,-0.425 16.8,0.375 14.0875,2.0875 27.6375,6.65 41.275,10.6 23.2875,6.9375 47.4,12.625 71.8625,11.525 15.85,-0.4 32.0125,-3.975 45.35,-12.8625 9.5,-6.275 17.6875,-14.9625 22.3625,-25.4 1.25,-37.6 -8.975,-74.775 -5.8,-112.4 1.075,-10.4625 2.675,-21.1875 7.675,-30.5875 4.825,-9.375 11.1625,-18.0625 14.325,-28.225 3.8125,-11.4 3.35,-24.1625 -1.1125,-35.3125 -6.75,-13.5875 -23.3375,-18.4875 -30.2,-32 -3.7,-7 -3.175,-15.275 -1.1125,-22.675 -15.2625,-16.8125 -34.9,-30.5 -57.3125,-35.5125 -8.6375,-2.0875 -17.6,-2 -26.425,-1.6625 -11.125,-8.3875 -25.8625,-6.15 -38.8875,-7.0625 m 32.4375,6.8625 c -3.5,3.1 -8.1875,1.1375 -12.35,1.8 -29.8375,3.475 -59.1625,-5.1625 -88.8125,-6.6875 -21.12505,-1.7875 -42.42505,3.075 -61.56255,11.9375 -19.7125,9.075 -36.9125,22.475 -54.65,34.7625 6.875,-9.6 16.7625,-16.4875 26.6375,-22.675 16,-9.625 32.7875,-18.3625 50.875,-23.2875 14.6125,-4 29.97505,-4.4 45.00005,-3.1125 31.625,2.0625 63.05,10.675 94.8625,7.2625 m -13.725,14.35 c 13.1375,0.3125 25.8875,-3.175 38.825,-4.7625 5.1125,-0.3625 11.025,-1 15.3,2.4375 2.2,1.6875 2.775,4.5375 3.3875,7.075 -3.7,-2.8125 -7.15,-7.8875 -12.4125,-7.05 -24.4,6.8375 -50.125,5.5125 -75.025,2.7 -20.3875,-2.2125 -40.6875,-6.3375 -61.2875,-5.675 -29.81255,0.575 -59.76255,10.2625 -83.12505,29.0125 -5.3125,4.8375 -10.025,12.3125 -18.2875,11.3625 27.7125,-30.125 69.7125,-44.5875 110.12505,-43.2875 27.675,0.8875 54.7,9 82.5,8.1875 m -71.0125,9.1 c 0.2875,0.7125 0.875,2.1375 1.175,2.85 -3.0375,-0.45 -5.8875,-1.6 -8.5625,-3.075 -16.3625,-0.4125 -32.86255,0.05 -48.90005,3.575 -18.85,4.0625 -38.225,12 -50.1375,27.875 8.0625,-17.1625 26.8,-25.9875 44.35,-30.2 20.3375,-4.7 41.56255,-4.4375 62.07505,-1.025 m 132.5625,16.125 c -1.2875,5.7875 6.425,12.05 0.65,16.6625 -0.7875,-4.825 -1.6375,-9.825 -4.525,-13.9125 -4.95,-7.575 -13.95,-11.1625 -22.55,-12.6625 -16.825,-2.6 -33.875,0.4625 -50.075,5.0375 7.95,-6.7125 18.7625,-7.9625 28.7375,-8.7625 16.8125,-1.1875 34.5875,2.7 47.7625,13.6375 m -130.4375,-2.2375 c 0.1,5.5875 0.125,11.1875 -0.0875,16.775 -5.6625,-3.75 0.8,-11.5125 -3.0625,-16.2375 -3.1125,-3.7125 -7.35,-6.3875 -9.9875,-10.525 0.8625,-0.45 2.5875,-1.3625 3.45,-1.825 3.0625,4.075 6.2,8.0875 9.6875,11.8125 m 67.725,4.225 c -1.7,1.0625 -3.925,1.7375 -4.8,3.7375 -3.375,6.975 -0.125,15.5375 -4.3125,22.2625 -0.25,-6.775 -0.05,-13.5625 -0.1,-20.3375 2.225,-2.725 4.2,-5.6375 6.6,-8.2125 0.875,0.85 1.75,1.7 2.6125,2.55 m -76.4125,20.975 c 7.15,4.5625 14.0625,11.2125 15.6875,19.825 -2.1375,8.025 -11.1125,10.1625 -16.4,15.5375 -20.1375,-11.5125 -43.55005,-17.9875 -66.82505,-16.0875 -7.5875,0.775 -14.65,4.775 -22.4125,4.125 -3.3125,-0.025 -6,-2.15 -8.5625,-3.9875 1.5,-7.125 5.5125,-13.6375 11.1875,-18.2 9.175,-7.4375 20.9875,-10.825 32.5625,-12.1 18.725,-1.625 38.48755,0.975 54.76255,10.8875 m 124.725,1.8125 c 7.075,2.1125 12.925,7.6875 14.925,14.8625 -18.2625,8.825 -39.5875,3.4875 -58.425,10.2125 -3.4625,1.3 -6.8125,3.175 -9.25,6.0125 -0.45,5.525 -0.0625,11.1 -0.175,16.65 20.0125,11.3625 36.825,27.5125 56.9375,38.6875 -9.1125,-2.85 -17.6,-7.3375 -26.45,-10.8625 -0.35,2.4 -0.35,5.6625 -3.175,6.5875 -3.35,0.2625 -6.0125,-2.15 -8.55,-3.9625 -3.05,8.7375 -10.1875,15.4125 -18.075,19.9 -5.025,2.725 -11.3625,4.7625 -16.825,2.0875 -4.2,-2.05 -6,-6.6625 -7.3125,-10.8375 1.3875,-0.825 2.85,-1.475 4.4,-1.925 3.7,1.775 6.725,5.7875 11.2875,4.8875 8.4625,-5.925 16.9125,-13.4 19.65,-23.7875 -5.575,-7.3375 -15.5875,-9.4375 -21.125,-16.6125 -0.25,-7.65 -0.0625,-15.3 -0.0375,-22.95 -6.4625,-2.025 -15.1125,-3.35 -16.7875,-11.25 5.2125,-5.375 12.4375,-0.5875 18.525,0.0875 3.5,-7.05 10.275,-11.65 17.4,-14.5125 13.5125,-5.35 28.95,-7.6375 43.0625,-3.275 m -227.91255,10 c -5,0.825 -10.55,1.15 -14.275,5.0625 3.6,0.1875 7.5125,-0.4125 10.5375,2.025 -6.0875,0.3625 -15.775,1.7375 -17.625,-6.1125 6.075,0.825 11.6625,-1.825 17.3375,-3.4375 1.3625,0.7875 2.7125,1.6 4.025,2.4625 m 287.12505,2.6 c 10.4125,5.4875 19.575,13.95 24.225,24.9125 5.3,12.15 4.4,26.6 -1.3625,38.4 -8.125,6.5625 -18.7625,8.6625 -27.875,13.5 1.25,-1.675 2.4875,-3.3625 4.0375,-4.75 5.55,-5.175 14.275,-4.8375 19.4375,-10.575 6.175,-7.4125 8.65,-17.8375 6.425,-27.2375 -3.55,-14.8 -15.875,-26.425 -29.8125,-31.6625 -11.6875,-0.9 -24.4625,4.1375 -35.1875,-2.5625 13.3375,-2.025 26.75,2.4 40.1125,-0.025 m -324.72505,2.2375 c -11.4375,0.225 -22.875,0.025 -34.325,0.1375 -3.7625,4.8625 -12.025,2.0125 -14.5125,8.1375 -7.7,13.05 -11.3625,28.55 -10.6,43.65 0.3875,8.0125 2.3375,16.425 7.6625,22.65 5.775,6.7625 17.2375,3.4375 21.8375,11.8125 -9.3,-1.7625 -18.2875,-5.8 -25.6125,-11.8125 -4.65,-10.15 -4.15,-21.625 -4.95,-32.525 -0.1,-7.0125 -0.075,-14.025 0.375,-21.025 5.725,-6.7125 9.2375,-15.675 17.25,-20.1625 6.825,-4.2125 15,-2.475 22.5375,-2.85 6.7375,0.05 14.3625,-2.05 20.3375,1.9875 m 38.0875,6.8875 c -2.8,0.6875 -5.5875,1.45 -8.3625,2.2 -2.1625,-5 6.225,-5.3875 8.3625,-2.2 m 11.5375,16.4 c 7.7125,1.35 16.3125,1.2125 22.975,-3.4 7.025,-4.325 12.2375,-12.55 21.25,-12.7875 -0.013,8.475 -5.225,16.025 -12.2125,20.4375 -8.525,6.0625 -19.4,7.375 -29.5875,6.6 -9.875,-0.7625 -19.0375,-4.9375 -27.725,-9.4 -7.3625,-3.75 -14.9125,-7.9125 -23.3375,-8.45 -9.3625,-0.825 -19.6125,0.025 -27.3375,5.9125 -7.8625,6 -10.9625,16.4375 -10.8125,25.975 0.15,5.975 4.05,10.8 5.6875,16.3375 1.075,3.4 0.075,6.9375 -0.7625,10.275 -8.2625,-6.35 -13.8125,-16.125 -14.55,-26.5625 -0.8625,-13.2375 4.9625,-26.775 15.2125,-35.2 7.5375,-6.4375 17.975,-7.975 27.5375,-6.85 18.875,2.3125 35.1,13.6125 53.6625,17.1125 m 270.08755,-13.6625 c 4.0875,2.775 8.8375,4.2625 13.125,6.675 1.3375,0.95 3.25,1.7875 3.4875,3.6125 1.3375,8.05 2.05,16.3125 1.05,24.45 -0.65,4.0875 -1.8125,8.65 -5.3125,11.25 -2.7375,1.9625 -6.2125,1.525 -9.2875,0.8 4.825,-1.5 10.1375,-4.0375 11.475,-9.4125 2.125,-8.675 0.275,-17.725 -0.55,-26.4625 -3.8875,-4.35 -10.7125,-3.8625 -14.8125,-7.8375 -1.0125,-1.1125 0.4875,-2.075 0.825,-3.075 m -2.35,10.8375 c 5.2,2.1125 8.725,7.075 9.6,12.55 -11.2625,-0.5875 -22.35,-6.475 -33.6875,-3.5125 -5.6,1.4875 -8.15,7.3125 -8.5625,12.6375 -8.6625,-0.1625 -17.875,0.9375 -26.0625,-2.5125 -4.6625,-1.8625 -6.55,-6.9875 -6.4875,-11.675 1.675,-0.5875 3.2625,-1.8 5.1375,-1.4625 4.7625,1.5625 8.35,5.5375 13.35,6.5875 4.85,-6.8875 12.975,-10.3625 20.7875,-12.7 8.375,-2.2375 17.7125,-3.2875 25.925,0.0875 m -314.40005,3.1625 c 1.2375,2.9125 1.2375,6.375 3.4,8.85 5.0875,6.225 12.325,10.1125 19.375,13.7 16.2625,7.8625 33.5,13.4 50.7,18.7875 22.1875,6.675 44.43755,13.1625 67.00005,18.4375 24.175,5.525 48.825,9.95 73.7,9.6 14.5125,-0.0125 29.175,-1.925 42.8125,-7.0625 12.3875,-4.675 23.8375,-12.4 31.925,-22.975 3.925,-7.375 0.55,-16.2875 3.6625,-23.925 0.5125,-1.9 2.8875,-1.925 4.2875,-2.8125 4.0375,2.7 2.4,7.925 3.45,11.9375 1.8875,4.9 6.1875,8.5 7.6875,13.6 4.0375,12.975 4.85,26.6625 5.125,40.175 -0.325,16.0375 -1.625,32.2625 -6.4,47.675 -2.1875,6.7 -4.9625,13.7 -10.6625,18.2125 -5.825,4.6375 -12.9375,7.2375 -19.975,9.4125 -17.3,4.975 -35.3375,6.65 -53.2375,7.7 -29.0375,1.15 -58.3125,0.675 -87,-4.3 -35.13755,-6 -69.41255,-20.3 -96.16255,-44.2 -13.1125,-11.825 -22.55,-26.875 -32.3375,-41.3875 -4.9625,-7.1375 -10.0125,-14.425 -16.8125,-19.95 0.625,-2.675 2.2375,-5.4625 1.1375,-8.225 -1.225,-3.575 -2.8375,-7 -4.05,-10.575 -6.725,2.05 -14.9375,4.4375 -21.1125,-0.2625 0.975,-1.7 1.5375,-3.6875 3,-5.05 5.95,-5.1 15.5875,-2.8625 20.825,-9.025 1.4375,-4.8375 0.75,-10.1625 2.7875,-14.85 1.1125,-2.6 4.1125,-4.1875 6.875,-3.4875 m 149.13755,20.775 c -0.25,2.1625 -0.125,5.125 -2.65,6.025 -5.075,2.2625 -11.0625,0.2 -16.15,2.5125 -2.725,1.425 -3.0625,4.9375 -3.1,7.6875 0.1125,5.4 8.5,5.6625 8.025,11.3125 0.9375,4.4875 -5.6,5.05 -8.6125,4 -7.05,-3.1625 -8.6375,-12.0125 -8.625,-18.95 0.3125,-3.2875 -0.65,-7.7125 2.7,-9.75 8.075,-5.75 19.3625,-7.15 28.4125,-2.8375 m -32.9625,-2.375 c 0.0625,3.2125 0.0625,6.4375 0.0375,9.65 -12.75005,4.9 -26.83755,-0.7125 -39.70005,3.9 1.425,-1.6125 2.8625,-3.4 5.0625,-3.925 9.5125,-2.2 19.5,1.975 28.875,-1.0125 3.625,-1.1125 4.1625,-4.9625 2.175,-7.825 1.175,-0.275 2.3625,-0.5375 3.55005,-0.7875 m 49.3875,17.2 c 4.45,0.9625 8.7375,4.0125 9.2125,8.8625 -10.7375,4.5875 -23.5,-3.9375 -33.25,4.0625 -1.775,-3.475 -2.2375,-7.35 -2.0125,-11.2125 8.2875,-2.9125 17.4625,-3.7 26.05,-1.7125 m -103.61255,109.85 c 25.55,12.2 50.725,26.0375 78.46255,32.725 14.35,3.65 29.2125,4.2625 43.9,5.5625 25.75,1.6 52.075,2.75 77.35,-3.5125 12.3125,-2.9875 24.075,-9.125 32.0875,-19.1375 -3.225,6.55 -8.05,12.375 -14.25,16.3 -11.2125,7.175 -24.75,9.075 -37.7625,10.05 -27.9875,1.6375 -56.0375,-0.25 -83.875,-3.125 -23.3375,-2.1875 -45.67505,-10.3 -66.63755,-20.4625 -19.225,-9.1375 -37.4125,-20.3375 -56.925,-28.875 9.65,2.2 18.6875,6.3625 27.65,10.475 m -50.375,-10.3625 c 38.025,21.7375 79.0875,38.0375 121.37505,49.3875 32.6,8.75 66.2375,13.1875 99.9375,14.4875 16.8,0.4375 33.8375,0 50.2,-4.2125 10.3875,-2.775 20.85,-7.425 27.8,-15.925 4.3,-3.825 -2.225,-11.375 3.625,-14.1875 0.325,4.9625 0.15,9.95 0.2,14.925 -7.1875,9.0125 -17.625,14.9625 -28.7,17.8 -17.75,4.625 -36.2875,4.025 -54.4625,3.4625 -45.825,-1.5 -91.375,-9.75 -134.97505,-23.875 -24.225,-8.025 -48,-17.8375 -69.8375,-31.15 -5.2375,-3.2875 -10.575,-6.525 -15.1625,-10.7125 m 227.82505,37.175 c -8.8125,-0.0875 -17.625,-0.1875 -26.425,0.0625 -16.3875,0.2875 -33,1.4625 -49.15,-1.925 16.325,-0.775 32.7125,-0.0875 49.05,-0.0625 8.775,0.025 18.3875,-2.4125 26.525,1.925 z"
         inkscape:connector-curvature="0"
         style="fill:#ffffff" />
      <path
         id="path4816"
         d="m -886.53625,379.77699 c -31.8125,3.4125 -63.2375,-5.2 -94.8625,-7.2625 -15.025,-1.2875 -30.38755,-0.8875 -45.00005,3.1125 -18.0875,4.925 -34.875,13.6625 -50.875,23.2875 -9.875,6.1875 -19.7625,13.075 -26.6375,22.675 17.7375,-12.2875 34.9375,-25.6875 54.65,-34.7625 19.1375,-8.8625 40.4375,-13.725 61.56255,-11.9375 29.65,1.525 58.975,10.1625 88.8125,6.6875 4.1625,-0.6625 8.85,1.3 12.35,-1.8 z"
         inkscape:connector-curvature="0"
         style="fill:#000000" />
      <path
         id="path4818"
         d="m -900.26125,394.12699 c -27.8,0.8125 -54.825,-7.3 -82.5,-8.1875 -40.41255,-1.3 -82.41255,13.1625 -110.12505,43.2875 8.2625,0.95 12.975,-6.525 18.2875,-11.3625 23.3625,-18.75 53.3125,-28.4375 83.12505,-29.0125 20.6,-0.6625 40.9,3.4625 61.2875,5.675 24.9,2.8125 50.625,4.1375 75.025,-2.7 5.2625,-0.8375 8.7125,4.2375 12.4125,7.05 -0.6125,-2.5375 -1.1875,-5.3875 -3.3875,-7.075 -4.275,-3.4375 -10.1875,-2.8 -15.3,-2.4375 -12.9375,1.5875 -25.6875,5.075 -38.825,4.7625 z"
         inkscape:connector-curvature="0"
         style="fill:#000000" />
      <path
         id="path4820"
         d="m -971.27375,403.22699 c -20.5125,-3.4125 -41.73755,-3.675 -62.07505,1.025 -17.55,4.2125 -36.2875,13.0375 -44.35,30.2 11.9125,-15.875 31.2875,-23.8125 50.1375,-27.875 16.0375,-3.525 32.53755,-3.9875 48.90005,-3.575 2.675,1.475 5.525,2.625 8.5625,3.075 -0.3,-0.7125 -0.8875,-2.1375 -1.175,-2.85 z"
         inkscape:connector-curvature="0"
         style="fill:#000000" />
      <path
         id="path4822"
         d="m -838.71125,419.35199 c -13.175,-10.9375 -30.95,-14.825 -47.7625,-13.6375 -9.975,0.8 -20.7875,2.05 -28.7375,8.7625 16.2,-4.575 33.25,-7.6375 50.075,-5.0375 8.6,1.5 17.6,5.0875 22.55,12.6625 2.8875,4.0875 3.7375,9.0875 4.525,13.9125 5.775,-4.6125 -1.9375,-10.875 -0.65,-16.6625 z"
         inkscape:connector-curvature="0"
         style="fill:#000000" />
      <path
         id="path4824"
         d="m -969.14875,417.11449 c -3.4875,-3.725 -6.625,-7.7375 -9.6875,-11.8125 -0.8625,0.4625 -2.5875,1.375 -3.45,1.825 2.6375,4.1375 6.875,6.8125 9.9875,10.525 3.8625,4.725 -2.6,12.4875 3.0625,16.2375 0.2125,-5.5875 0.1875,-11.1875 0.0875,-16.775 z"
         inkscape:connector-curvature="0"
         style="fill:#000000" />
      <path
         id="path4826"
         d="m -901.42375,421.33949 c -0.8625,-0.85 -1.7375,-1.7 -2.6125,-2.55 -2.4,2.575 -4.375,5.4875 -6.6,8.2125 0.05,6.775 -0.15,13.5625 0.1,20.3375 4.1875,-6.725 0.9375,-15.2875 4.3125,-22.2625 0.875,-2 3.1,-2.675 4.8,-3.7375 z"
         inkscape:connector-curvature="0"
         style="fill:#000000" />
      <path
         id="path4828"
         d="m -977.83625,442.31449 c -16.275,-9.9125 -36.03755,-12.5125 -54.76255,-10.8875 -11.575,1.275 -23.3875,4.6625 -32.5625,12.1 -5.675,4.5625 -9.6875,11.075 -11.1875,18.2 2.5625,1.8375 5.25,3.9625 8.5625,3.9875 7.7625,0.65 14.825,-3.35 22.4125,-4.125 23.275,-1.9 46.68755,4.575 66.82505,16.0875 5.2875,-5.375 14.2625,-7.5125 16.4,-15.5375 -1.625,-8.6125 -8.5375,-15.2625 -15.6875,-19.825 m -3.075,10.5 c 3.6375,2.4875 5.825,6.7125 5.225,11.1625 -6.8625,2.775 -13.3,-1.7 -19.0375,-4.975 -5.53755,-3.35 -11.97505,-5.4 -18.50005,-4.6125 1.4625,-4.6625 1.0875,-9.975 4.05,-14.0875 9.46255,4.0375 19.81255,6.425 28.26255,12.5125 m -69.36255,-0.7 c -4.725,1.5625 -9.6875,4.775 -14.7875,3.1 3.4375,-3.8125 10.875,-9.025 14.7875,-3.1 z"
         inkscape:connector-curvature="0"
         style="fill:#000000" />
      <path
         id="path4830"
         d="m -980.91125,452.81449 c -8.45,-6.0875 -18.8,-8.475 -28.26255,-12.5125 -2.9625,4.1125 -2.5875,9.425 -4.05,14.0875 6.525,-0.7875 12.9625,1.2625 18.50005,4.6125 5.7375,3.275 12.175,7.75 19.0375,4.975 0.6,-4.45 -1.5875,-8.675 -5.225,-11.1625 z"
         inkscape:connector-curvature="0"
         style="fill:#ffffff" />
      <path
         id="path4832"
         d="m -853.11125,444.12699 c -14.1125,-4.3625 -29.55,-2.075 -43.0625,3.275 -7.125,2.8625 -13.9,7.4625 -17.4,14.5125 -6.0875,-0.675 -13.3125,-5.4625 -18.525,-0.0875 1.675,7.9 10.325,9.225 16.7875,11.25 -0.025,7.65 -0.2125,15.3 0.0375,22.95 5.5375,7.175 15.55,9.275 21.125,16.6125 -2.7375,10.3875 -11.1875,17.8625 -19.65,23.7875 -4.5625,0.9 -7.5875,-3.1125 -11.2875,-4.8875 -1.55,0.45 -3.0125,1.1 -4.4,1.925 1.3125,4.175 3.1125,8.7875 7.3125,10.8375 5.4625,2.675 11.8,0.6375 16.825,-2.0875 7.8875,-4.4875 15.025,-11.1625 18.075,-19.9 2.5375,1.8125 5.2,4.225 8.55,3.9625 2.825,-0.925 2.825,-4.1875 3.175,-6.5875 8.85,3.525 17.3375,8.0125 26.45,10.8625 -20.1125,-11.175 -36.925,-27.325 -56.9375,-38.6875 0.1125,-5.55 -0.275,-11.125 0.175,-16.65 2.4375,-2.8375 5.7875,-4.7125 9.25,-6.0125 18.8375,-6.725 40.1625,-1.3875 58.425,-10.2125 -2,-7.175 -7.85,-12.75 -14.925,-14.8625 m -1.075,9.9625 c -7.2875,-0.575 -15.6375,3.2625 -22.1125,-1.4625 7.3125,0.55 15.65,-3.2875 22.1125,1.4625 z"
         inkscape:connector-curvature="0"
         style="fill:#000000" />
      <path
         id="path4834"
         d="m -1050.2738,452.11449 c -3.9125,-5.925 -11.35,-0.7125 -14.7875,3.1 5.1,1.675 10.0625,-1.5375 14.7875,-3.1 z"
         inkscape:connector-curvature="0"
         style="fill:#ffffff" />
      <path
         id="path4836"
         d="m -854.18625,454.08949 c -6.4625,-4.75 -14.8,-0.9125 -22.1125,-1.4625 6.475,4.725 14.825,0.8875 22.1125,1.4625 z"
         inkscape:connector-curvature="0"
         style="fill:#ffffff" />
      <path
         id="path4838"
         d="m -1081.0238,454.12699 c -1.3125,-0.8625 -2.6625,-1.675 -4.025,-2.4625 -5.675,1.6125 -11.2625,4.2625 -17.3375,3.4375 1.85,7.85 11.5375,6.475 17.625,6.1125 -3.025,-2.4375 -6.9375,-1.8375 -10.5375,-2.025 3.725,-3.9125 9.275,-4.2375 14.275,-5.0625 z"
         inkscape:connector-curvature="0"
         style="fill:#000000" />
      <path
         id="path4840"
         d="m -793.89875,456.72699 c -13.3625,2.425 -26.775,-2 -40.1125,0.025 10.725,6.7 23.5,1.6625 35.1875,2.5625 13.9375,5.2375 26.2625,16.8625 29.8125,31.6625 2.225,9.4 -0.25,19.825 -6.425,27.2375 -5.1625,5.7375 -13.8875,5.4 -19.4375,10.575 -1.55,1.3875 -2.7875,3.075 -4.0375,4.75 9.1125,-4.8375 19.75,-6.9375 27.875,-13.5 5.7625,-11.8 6.6625,-26.25 1.3625,-38.4 -4.65,-10.9625 -13.8125,-19.425 -24.225,-24.9125 z"
         inkscape:connector-curvature="0"
         style="fill:#000000" />
      <path
         id="path4842"
         d="m -1118.6238,458.96449 c -5.975,-4.0375 -13.6,-1.9375 -20.3375,-1.9875 -7.5375,0.375 -15.7125,-1.3625 -22.5375,2.85 -8.0125,4.4875 -11.525,13.45 -17.25,20.1625 -0.45,7 -0.475,14.0125 -0.375,21.025 0.8,10.9 0.3,22.375 4.95,32.525 7.325,6.0125 16.3125,10.05 25.6125,11.8125 -4.6,-8.375 -16.0625,-5.05 -21.8375,-11.8125 -5.325,-6.225 -7.275,-14.6375 -7.6625,-22.65 -0.7625,-15.1 2.9,-30.6 10.6,-43.65 2.4875,-6.125 10.75,-3.275 14.5125,-8.1375 11.45,-0.1125 22.8875,0.0875 34.325,-0.1375 z"
         inkscape:connector-curvature="0"
         style="fill:#000000" />
      <path
         id="path4844"
         d="m -1080.5363,465.85199 c -2.1375,-3.1875 -10.525,-2.8 -8.3625,2.2 2.775,-0.75 5.5625,-1.5125 8.3625,-2.2 z"
         inkscape:connector-curvature="0"
         style="fill:#000000" />
      <path
         id="path4846"
         d="m -1068.9988,482.25199 c -18.5625,-3.5 -34.7875,-14.8 -53.6625,-17.1125 -9.5625,-1.125 -20,0.4125 -27.5375,6.85 -10.25,8.425 -16.075,21.9625 -15.2125,35.2 0.7375,10.4375 6.2875,20.2125 14.55,26.5625 0.8375,-3.3375 1.8375,-6.875 0.7625,-10.275 -1.6375,-5.5375 -5.5375,-10.3625 -5.6875,-16.3375 -0.15,-9.5375 2.95,-19.975 10.8125,-25.975 7.725,-5.8875 17.975,-6.7375 27.3375,-5.9125 8.425,0.5375 15.975,4.7 23.3375,8.45 8.6875,4.4625 17.85,8.6375 27.725,9.4 10.1875,0.775 21.0625,-0.5375 29.5875,-6.6 6.9875,-4.4125 12.2,-11.9625 12.2125,-20.4375 -9.0125,0.2375 -14.225,8.4625 -21.25,12.7875 -6.6625,4.6125 -15.2625,4.75 -22.975,3.4 z"
         inkscape:connector-curvature="0"
         style="fill:#000000" />
      <path
         id="path4848"
         d="m -798.91125,468.58949 c -0.3375,1 -1.8375,1.9625 -0.825,3.075 4.1,3.975 10.925,3.4875 14.8125,7.8375 0.825,8.7375 2.675,17.7875 0.55,26.4625 -1.3375,5.375 -6.65,7.9125 -11.475,9.4125 3.075,0.725 6.55,1.1625 9.2875,-0.8 3.5,-2.6 4.6625,-7.1625 5.3125,-11.25 1,-8.1375 0.2875,-16.4 -1.05,-24.45 -0.2375,-1.825 -2.15,-2.6625 -3.4875,-3.6125 -4.2875,-2.4125 -9.0375,-3.9 -13.125,-6.675 z"
         inkscape:connector-curvature="0"
         style="fill:#000000" />
      <path
         id="path4850"
         d="m -801.26125,479.42699 c -8.2125,-3.375 -17.55,-2.325 -25.925,-0.0875 -7.8125,2.3375 -15.9375,5.8125 -20.7875,12.7 -5,-1.05 -8.5875,-5.025 -13.35,-6.5875 -1.875,-0.3375 -3.4625,0.875 -5.1375,1.4625 -0.0625,4.6875 1.825,9.8125 6.4875,11.675 8.1875,3.45 17.4,2.35 26.0625,2.5125 0.4125,-5.325 2.9625,-11.15 8.5625,-12.6375 11.3375,-2.9625 22.425,2.925 33.6875,3.5125 -0.875,-5.475 -4.4,-10.4375 -9.6,-12.55 z"
         inkscape:connector-curvature="0"
         style="fill:#000000" />
      <path
         id="path4852"
         d="m -1115.6613,482.58949 c -2.7625,-0.7 -5.7625,0.8875 -6.875,3.4875 -2.0375,4.6875 -1.35,10.0125 -2.7875,14.85 -5.2375,6.1625 -14.875,3.925 -20.825,9.025 -1.4625,1.3625 -2.025,3.35 -3,5.05 6.175,4.7 14.3875,2.3125 21.1125,0.2625 1.2125,3.575 2.825,7 4.05,10.575 1.1,2.7625 -0.5125,5.55 -1.1375,8.225 6.8,5.525 11.85,12.8125 16.8125,19.95 9.7875,14.5125 19.225,29.5625 32.3375,41.3875 26.75,23.9 61.025,38.2 96.16255,44.2 28.6875,4.975 57.9625,5.45 87,4.3 17.9,-1.05 35.9375,-2.725 53.2375,-7.7 7.0375,-2.175 14.15,-4.775 19.975,-9.4125 5.7,-4.5125 8.475,-11.5125 10.6625,-18.2125 4.775,-15.4125 6.075,-31.6375 6.4,-47.675 -0.275,-13.5125 -1.0875,-27.2 -5.125,-40.175 -1.5,-5.1 -5.8,-8.7 -7.6875,-13.6 -1.05,-4.0125 0.5875,-9.2375 -3.45,-11.9375 -1.4,0.8875 -3.775,0.9125 -4.2875,2.8125 -3.1125,7.6375 0.2625,16.55 -3.6625,23.925 -8.0875,10.575 -19.5375,18.3 -31.925,22.975 -13.6375,5.1375 -28.3,7.05 -42.8125,7.0625 -24.875,0.35 -49.525,-4.075 -73.7,-9.6 -22.5625,-5.275 -44.81255,-11.7625 -67.00005,-18.4375 -17.2,-5.3875 -34.4375,-10.925 -50.7,-18.7875 -7.05,-3.5875 -14.2875,-7.475 -19.375,-13.7 -2.1625,-2.475 -2.1625,-5.9375 -3.4,-8.85 m 41.6,41.9 c 0.275,6.95 -1.45,14.3875 1.875,20.8625 -14.025,-4.725 -29.25,-9.125 -39.6625,-20.275 -5.6125,-5.775 -5.85,-14.6875 -2,-21.4875 12.3625,8.6 26.675,13.65 39.7875,20.9 m 67.5375,20.95 c -1.7125,6.9 -2.6375,13.975 -4.5125,20.85 -13.875,-6.875 -30.3625,-7.3375 -43.275,-16.3125 -6.825,-4.625 -10.1375,-12.8375 -10.4375,-20.8625 19.7,4.4125 38.7,11.3375 58.225,16.325 m 189.55005,-6.9375 c -1.2875,-2.375 -4.05,-6.075 -0.95,-8.175 2,2.4 2.6125,5.4 0.95,8.175 m -3.6125,22.5 c 0.0875,4.5375 -4.3875,6.7375 -8.1,7.875 1.6,-7.825 -1.225,-15.425 -2.15,-23.1125 -0.55,-3.075 1.475,-5.5875 3.4875,-7.625 2.175,7.625 6.45,14.825 6.7625,22.8625 m -252.98755,0.7125 c 3.75,4.9875 2.0625,11.525 -0.5125,16.625 -7.4625,-1.1 -10.775,-8.575 -14.5125,-14.1625 -3.125,-5.325 -8.4125,-9.075 -11.1625,-14.6375 -1.3375,-1.8625 0.5125,-3.325 1.8,-4.375 7.6875,6.15 18.325,8.4 24.3875,16.55 m 233.10005,-13.9875 c 3.325,8.15 1.525,16.95 -0.1875,25.2375 -1.925,-0.0625 -4.0125,-0.7 -5.825,0.275 -2.725,0.775 -6,3.9 -8.3125,0.7375 1.2375,-1.65 3.325,-3.3 2.45,-5.65 -1.9625,-4.225 -5.2875,-7.95 -5.3125,-12.875 6.3,-1.2625 11.375,-5.275 17.1875,-7.725 m -109.9375,11.7375 c -0.0625,6.175 -0.0375,12.35 -0.0125,18.525 -17.4,2.85 -33.875,-4.7125 -50.82505,-6.9125 1.88755,-5.325 1.25005,-11.075 2.85005,-16.425 0.7875,-2.8 3.825,-5.2625 6.8,-4.2125 13.475,4.125 27.675,5.0625 41.1875,9.025 m 83.95,-2.125 c -0.575,6.4875 1.925,12.5125 4.7,18.2 -12.475,0.0125 -24.7,4.075 -37.2125,2.4375 0.075,-5.425 0.95,-11.35 -2.025,-16.2375 11.675,0.6625 23.35,-1.15 34.5375,-4.4 m -44.5125,4.4875 c -0.4375,5.6625 4.0125,10.3875 2.8375,16.1375 -10.975,0.1 -21.95,0.1 -32.925,0 0.1375,-6.2375 0.0125,-12.4625 0.1,-18.7 10.0875,-0.1125 19.875,4.3375 29.9875,2.5625 m -104.61255,21.0375 c -0.025,3.9 -0.037,7.8625 -1.1625,11.625 -2.0625,7.625 -7.0875,13.875 -10.7375,20.75 -13.6625,-10.1875 -29.25,-17.7375 -41.625,-29.6625 1.8375,-0.8875 4.25,-1.3375 5.075,-3.4625 2.35,-5.775 0.575,-12.5125 3.675,-18.1 13.325,9.5375 29.2,14.4 44.775,18.85 m 55.96255,16.3 c 1.925,10.875 -2.9875,21.775 -0.3625,32.525 -19.15,-0.625 -37.5375,-6.3625 -55.73755,-11.775 3.3375,-11.775 9.9875,-22.475 11.7375,-34.7125 13.80005,7.2875 29.02505,11.425 44.36255,13.9625 m 144.4125,-3.2125 c -2.4125,4.45 -4.4125,9.075 -6.2125,13.8 -1.325,2.6875 -2.425,6.0125 -5.375,7.3125 1.3375,-6.075 3.05,-12.2625 6.575,-17.475 1.125,-1.825 2.9875,-3 5.0125,-3.6375 m -18.3125,5.275 c -0.9375,5.625 -4.0125,10.5625 -5.1625,16.125 1.9875,1.025 3.9875,2.025 5.975,3.0375 1.2125,-0.75 2.4625,-1.4625 3.725,-2.1375 -0.175,0.525 -0.5125,1.55 -0.675,2.0625 -6.05,3.8875 -13.425,4.8125 -20.25,6.6125 3.65,-9.3875 6.075,-21.325 16.3875,-25.7 m -79.5375,4.9 c -1.275,9.2875 -3.475,18.425 -4.65,27.725 -8.75,-0.525 -17.5125,0.9 -26.25,0.025 -3.2625,-0.2375 -6.175,-1.8375 -8.6,-3.95 4.475,-4.45 2.35,-11.1 1.975,-16.6 -0.475,-4.3375 -1.1125,-10.4875 4.0875,-12.1875 9.7875,6.6625 22.2625,4.75 33.4375,4.9875 m 60.8875,1.9375 c -4.15,6.05 -11.4375,13.075 -7.6375,21 -5.7125,-1.35 -10.375,3.45 -16.05,2.7125 1.6375,-7.9375 7.55,-14.575 7.2875,-22.9625 5.7625,2.1625 11.6875,-5.9875 16.4,-0.75 m -25.7625,2.3625 c -3.875,6.675 -7.4875,13.575 -9.475,21.075 -6.6625,1.7 -14.525,5.075 -20.9,0.8125 4.2375,-7.3125 2.025,-16.5125 6.575,-23.6875 7.875,1.3 16.7875,-3.225 23.8,1.8 z"
         inkscape:connector-curvature="0"
         style="fill:#000000" />
      <path
         id="path4854"
         d="m -966.52375,503.36449 c -9.05,-4.3125 -20.3375,-2.9125 -28.4125,2.8375 -3.35,2.0375 -2.3875,6.4625 -2.7,9.75 -0.0125,6.9375 1.575,15.7875 8.625,18.95 3.0125,1.05 9.55,0.4875 8.6125,-4 0.475,-5.65 -7.9125,-5.9125 -8.025,-11.3125 0.0375,-2.75 0.375,-6.2625 3.1,-7.6875 5.0875,-2.3125 11.075,-0.25 16.15,-2.5125 2.525,-0.9 2.4,-3.8625 2.65,-6.025 z"
         inkscape:connector-curvature="0"
         style="fill:#000000" />
      <path
         id="path4856"
         d="m -999.48625,500.98949 c -1.18755,0.25 -2.37505,0.5125 -3.55005,0.7875 1.9875,2.8625 1.45,6.7125 -2.175,7.825 -9.375,2.9875 -19.3625,-1.1875 -28.875,1.0125 -2.2,0.525 -3.6375,2.3125 -5.0625,3.925 12.8625,-4.6125 26.95,1 39.70005,-3.9 0.025,-3.2125 0.025,-6.4375 -0.0375,-9.65 z"
         inkscape:connector-curvature="0"
         style="fill:#000000" />
      <path
         id="path4858"
         d="m -1074.0613,524.48949 c -13.1125,-7.25 -27.425,-12.3 -39.7875,-20.9 -3.85,6.8 -3.6125,15.7125 2,21.4875 10.4125,11.15 25.6375,15.55 39.6625,20.275 -3.325,-6.475 -1.6,-13.9125 -1.875,-20.8625 z"
         inkscape:connector-curvature="0"
         style="fill:#ffffff" />
      <path
         id="path4862"
         d="m -950.09875,518.18949 c -8.5875,-1.9875 -17.7625,-1.2 -26.05,1.7125 -0.225,3.8625 0.2375,7.7375 2.0125,11.2125 9.75,-8 22.5125,0.525 33.25,-4.0625 -0.475,-4.85 -4.7625,-7.9 -9.2125,-8.8625 z"
         inkscape:connector-curvature="0"
         style="fill:#000000" />
      <path
         id="path4864"
         d="m -1006.5238,545.43949 c -19.525,-4.9875 -38.525,-11.9125 -58.225,-16.325 0.3,8.025 3.6125,16.2375 10.4375,20.8625 12.9125,8.975 29.4,9.4375 43.275,16.3125 1.875,-6.875 2.8,-13.95 4.5125,-20.85 z"
         inkscape:connector-curvature="0"
         style="fill:#ffffff" />
      <path
         id="path4866"
         d="m -816.97375,538.50199 c 1.6625,-2.775 1.05,-5.775 -0.95,-8.175 -3.1,2.1 -0.3375,5.8 0.95,8.175 z"
         inkscape:connector-curvature="0"
         style="fill:#ffffff" />
      <path
         id="path4868"
         d="m -820.58625,561.00199 c -0.3125,-8.0375 -4.5875,-15.2375 -6.7625,-22.8625 -2.0125,2.0375 -4.0375,4.55 -3.4875,7.625 0.925,7.6875 3.75,15.2875 2.15,23.1125 3.7125,-1.1375 8.1875,-3.3375 8.1,-7.875 z"
         inkscape:connector-curvature="0"
         style="fill:#ffffff" />
      <path
         id="path4870"
         d="m -1073.5738,561.71449 c -6.0625,-8.15 -16.7,-10.4 -24.3875,-16.55 -1.2875,1.05 -3.1375,2.5125 -1.8,4.375 2.75,5.5625 8.0375,9.3125 11.1625,14.6375 3.7375,5.5875 7.05,13.0625 14.5125,14.1625 2.575,-5.1 4.2625,-11.6375 0.5125,-16.625 z"
         inkscape:connector-curvature="0"
         style="fill:#ffffff" />
      <path
         id="path4872"
         d="m -840.47375,547.72699 c -5.8125,2.45 -10.8875,6.4625 -17.1875,7.725 0.025,4.925 3.35,8.65 5.3125,12.875 0.875,2.35 -1.2125,4 -2.45,5.65 2.3125,3.1625 5.5875,0.0375 8.3125,-0.7375 1.8125,-0.975 3.9,-0.3375 5.825,-0.275 1.7125,-8.2875 3.5125,-17.0875 0.1875,-25.2375 z"
         inkscape:connector-curvature="0"
         style="fill:#ffffff" />
      <path
         id="path4874"
         d="m -950.41125,559.46449 c -13.5125,-3.9625 -27.7125,-4.9 -41.1875,-9.025 -2.975,-1.05 -6.0125,1.4125 -6.8,4.2125 -1.6,5.35 -0.9625,11.1 -2.85005,16.425 16.95005,2.2 33.42505,9.7625 50.82505,6.9125 -0.025,-6.175 -0.05,-12.35 0.0125,-18.525 z"
         inkscape:connector-curvature="0"
         style="fill:#ffffff" />
      <path
         id="path4876"
         d="m -1200.2363,570.61449 c 1.8375,-5.1125 1.7375,-10.6 0,-15.7125 l 0,15.7125 z"
         inkscape:connector-curvature="0"
         style="fill:#cacaca" />
      <path
         id="path4878"
         d="m -866.46125,557.33949 c -11.1875,3.25 -22.8625,5.0625 -34.5375,4.4 2.975,4.8875 2.1,10.8125 2.025,16.2375 12.5125,1.6375 24.7375,-2.425 37.2125,-2.4375 -2.775,-5.6875 -5.275,-11.7125 -4.7,-18.2 z"
         inkscape:connector-curvature="0"
         style="fill:#ffffff" />
      <path
         id="path4880"
         d="m -910.97375,561.82699 c -10.1125,1.775 -19.9,-2.675 -29.9875,-2.5625 -0.0875,6.2375 0.0375,12.4625 -0.1,18.7 10.975,0.1 21.95,0.1 32.925,0 1.175,-5.75 -3.275,-10.475 -2.8375,-16.1375 z"
         inkscape:connector-curvature="0"
         style="fill:#ffffff" />
      <path
         id="path4882"
         d="m -1015.5863,582.86449 c -15.575,-4.45 -31.45,-9.3125 -44.775,-18.85 -3.1,5.5875 -1.325,12.325 -3.675,18.1 -0.825,2.125 -3.2375,2.575 -5.075,3.4625 12.375,11.925 27.9625,19.475 41.625,29.6625 3.65,-6.875 8.675,-13.125 10.7375,-20.75 1.125,-3.7625 1.1375,-7.725 1.1625,-11.625 z"
         inkscape:connector-curvature="0"
         style="fill:#ffffff" />
      <path
         id="path4884"
         d="m -959.62375,599.16449 c -15.3375,-2.5375 -30.5625,-6.675 -44.36255,-13.9625 -1.75,12.2375 -8.4,22.9375 -11.7375,34.7125 18.20005,5.4125 36.58755,11.15 55.73755,11.775 -2.625,-10.75 2.2875,-21.65 0.3625,-32.525 z"
         inkscape:connector-curvature="0"
         style="fill:#ffffff" />
      <path
         id="path4886"
         d="m -1200.2363,593.30199 c 1.975,-1.4375 2.85,-5.175 0,-6.15 l 0,6.15 z"
         inkscape:connector-curvature="0"
         style="fill:#c7c7c7" />
      <path
         id="path4888"
         d="m -815.21125,595.95199 c -2.025,0.6375 -3.8875,1.8125 -5.0125,3.6375 -3.525,5.2125 -5.2375,11.4 -6.575,17.475 2.95,-1.3 4.05,-4.625 5.375,-7.3125 1.8,-4.725 3.8,-9.35 6.2125,-13.8 z"
         inkscape:connector-curvature="0"
         style="fill:#ffffff" />
      <path
         id="path4890"
         d="m -833.52375,601.22699 c -10.3125,4.375 -12.7375,16.3125 -16.3875,25.7 6.825,-1.8 14.2,-2.725 20.25,-6.6125 0.1625,-0.5125 0.5,-1.5375 0.675,-2.0625 -1.2625,0.675 -2.5125,1.3875 -3.725,2.1375 -1.9875,-1.0125 -3.9875,-2.0125 -5.975,-3.0375 1.15,-5.5625 4.225,-10.5 5.1625,-16.125 z"
         inkscape:connector-curvature="0"
         style="fill:#ffffff" />
      <path
         id="path4892"
         d="m -913.06125,606.12699 c -11.175,-0.2375 -23.65,1.675 -33.4375,-4.9875 -5.2,1.7 -4.5625,7.85 -4.0875,12.1875 0.375,5.5 2.5,12.15 -1.975,16.6 2.425,2.1125 5.3375,3.7125 8.6,3.95 8.7375,0.875 17.5,-0.55 26.25,-0.025 1.175,-9.3 3.375,-18.4375 4.65,-27.725 z"
         inkscape:connector-curvature="0"
         style="fill:#ffffff" />
      <path
         id="path4894"
         d="m -852.17375,608.06449 c -4.7125,-5.2375 -10.6375,2.9125 -16.4,0.75 0.2625,8.3875 -5.65,15.025 -7.2875,22.9625 5.675,0.7375 10.3375,-4.0625 16.05,-2.7125 -3.8,-7.925 3.4875,-14.95 7.6375,-21 z"
         inkscape:connector-curvature="0"
         style="fill:#ffffff" />
      <path
         id="path4896"
         d="m -877.93625,610.42699 c -7.0125,-5.025 -15.925,-0.5 -23.8,-1.8 -4.55,7.175 -2.3375,16.375 -6.575,23.6875 6.375,4.2625 14.2375,0.8875 20.9,-0.8125 1.9875,-7.5 5.6,-14.4 9.475,-21.075 z"
         inkscape:connector-curvature="0"
         style="fill:#ffffff" />
      <path
         id="path4898"
         d="m -1200.2363,611.73949 c 2.5125,0.55 2.025,-3.225 0,-3.425 l 0,3.425 z"
         inkscape:connector-curvature="0"
         style="fill:#c5c5c5" />
      <path
         id="path4900"
         d="m -1053.7113,628.03949 c -8.9625,-4.1125 -18,-8.275 -27.65,-10.475 19.5125,8.5375 37.7,19.7375 56.925,28.875 20.9625,10.1625 43.30005,18.275 66.63755,20.4625 27.8375,2.875 55.8875,4.7625 83.875,3.125 13.0125,-0.975 26.55,-2.875 37.7625,-10.05 6.2,-3.925 11.025,-9.75 14.25,-16.3 -8.0125,10.0125 -19.775,16.15 -32.0875,19.1375 -25.275,6.2625 -51.6,5.1125 -77.35,3.5125 -14.6875,-1.3 -29.55,-1.9125 -43.9,-5.5625 -27.73755,-6.6875 -52.91255,-20.525 -78.46255,-32.725 z"
         inkscape:connector-curvature="0"
         style="fill:#000000" />
      <path
         id="path4902"
         d="m -1104.0863,617.67699 c 4.5875,4.1875 9.925,7.425 15.1625,10.7125 21.8375,13.3125 45.6125,23.125 69.8375,31.15 43.60005,14.125 89.15005,22.375 134.97505,23.875 18.175,0.5625 36.7125,1.1625 54.4625,-3.4625 11.075,-2.8375 21.5125,-8.7875 28.7,-17.8 -0.05,-4.975 0.125,-9.9625 -0.2,-14.925 -5.85,2.8125 0.675,10.3625 -3.625,14.1875 -6.95,8.5 -17.4125,13.15 -27.8,15.925 -16.3625,4.2125 -33.4,4.65 -50.2,4.2125 -33.7,-1.3 -67.3375,-5.7375 -99.9375,-14.4875 -42.28755,-11.35 -83.35005,-27.65 -121.37505,-49.3875 z"
         inkscape:connector-curvature="0"
         style="fill:#000000" />
      <path
         id="path4904"
         d="m -1200.2363,661.82699 c 1.8,-5.0875 1.8125,-10.5625 0,-15.65 l 0,15.65 z"
         inkscape:connector-curvature="0"
         style="fill:#cacaca" />
      <path
         id="path4906"
         d="m -876.26125,654.85199 c -8.1375,-4.3375 -17.75,-1.9 -26.525,-1.925 -16.3375,-0.025 -32.725,-0.7125 -49.05,0.0625 16.15,3.3875 32.7625,2.2125 49.15,1.925 8.8,-0.25 17.6125,-0.15 26.425,-0.0625 z"
         inkscape:connector-curvature="0"
         style="fill:#000000" />
      <path
         id="path4908"
         d="m -1021.6863,723.40194 c -3.175,-0.87495 -6.45,-1.47495 -9.7625,-1.33745 -10,0.1625 -20.0125,0.1 -30.0125,0 -2.9625,-0.075 -5.875,0.55 -8.725,1.33745 l 48.5,0 z"
         inkscape:connector-curvature="0"
         style="fill:#cbcbcb" />
    </g>
  </g>
</svg>
