<?xml version="1.0" encoding="UTF-8" standalone="no"?>
<!-- Created with Inkscape (http://www.inkscape.org/) -->

<svg
   xmlns:dc="http://purl.org/dc/elements/1.1/"
   xmlns:cc="http://creativecommons.org/ns#"
   xmlns:rdf="http://www.w3.org/1999/02/22-rdf-syntax-ns#"
   xmlns:svg="http://www.w3.org/2000/svg"
   xmlns="http://www.w3.org/2000/svg"
   xmlns:sodipodi="http://sodipodi.sourceforge.net/DTD/sodipodi-0.dtd"
   xmlns:inkscape="http://www.inkscape.org/namespaces/inkscape"
   width="959.93677"
   height="959.93677"
   id="svg3087"
   version="1.1"
   inkscape:version="0.48.4 r9939"
   sodipodi:docname="vkontakte_plugin_icon.svg"
   inkscape:export-filename="D:\studyworkspace\Ace IM\res\drawable-xxhdpi\dummy_icon.png"
   inkscape:export-xdpi="194.35384"
   inkscape:export-ydpi="194.35384">
  <defs
     id="defs3089" />
  <sodipodi:namedview
     id="base"
     pagecolor="#ffffff"
     bordercolor="#666666"
     borderopacity="1.0"
     inkscape:pageopacity="0.0"
     inkscape:pageshadow="2"
     inkscape:zoom="0.35"
     inkscape:cx="1473.3649"
     inkscape:cy="685.36668"
     inkscape:document-units="px"
     inkscape:current-layer="layer1"
     showgrid="false"
     inkscape:window-width="1920"
     inkscape:window-height="1017"
     inkscape:window-x="-8"
     inkscape:window-y="-8"
     inkscape:window-maximized="1"
     fit-margin-top="0"
     fit-margin-left="0"
     fit-margin-right="0"
     fit-margin-bottom="0" />
  <metadata
     id="metadata3092">
    <rdf:RDF>
      <cc:Work
         rdf:about="">
        <dc:format>image/svg+xml</dc:format>
        <dc:type
           rdf:resource="http://purl.org/dc/dcmitype/StillImage" />
        <dc:title></dc:title>
      </cc:Work>
    </rdf:RDF>
  </metadata>
  <g
     inkscape:label="Layer 1"
     inkscape:groupmode="layer"
     id="layer1"
     transform="translate(68.539833,-40.965229)">
    <path
       style="fill:#7f7f7f;stroke:none;stroke-opacity:1;fill-opacity:0.39215687"
       d="M 40.34375 112.46875 L 40.34375 668.0625 L 351.59375 668.0625 C 349.83085 666.73735 348.13591 665.36879 346.53125 663.9375 C 328.91826 651.68697 328.29073 637.99332 336.375 619.4375 C 338.92638 611.70775 344.41319 604.37374 360.5 600.375 C 362.85024 599.79079 365.35364 599.53231 368 599.53125 C 393.58145 599.52104 433.4266 624.74014 496.03125 636.46875 C 532.23627 643.25155 568.71527 649.09079 595.9375 650 L 595.9375 639.46875 C 570.81771 639.5196 555.97694 636.62874 528.90625 632.65625 C 569.16068 598.82908 607.56413 552.11707 587.15625 539.78125 C 580.92911 542.52984 595.51107 572.03143 516.875 631.125 C 502.32311 630.28019 501.08612 630.56577 489.625 627.46875 C 500.30445 617.34563 500.1994 543.60701 491 540.40625 C 474.72687 536.19964 509.93612 650.97389 462.09375 619.90625 C 431.57547 608.24525 436.55732 554.79146 438.5 537.5625 C 409.66704 575.22023 450.70683 615.63258 429.1875 608.65625 C 406.14358 597.75551 388.63774 593.64632 378.34375 594.28125 C 354.08989 539.70908 329.17718 446.30936 378.28125 409.6875 L 381.34375 410.03125 C 379.64198 408.40405 377.99087 406.72182 376.40625 405.03125 L 237.8125 401.09375 L 238.03125 393 L 369.28125 396.71875 C 364.99198 391.21724 361.30763 385.45781 358.28125 379.53125 L 234.6875 353.6875 L 236.34375 345.78125 L 354.1875 370.4375 C 351.32999 363.01405 349.52448 355.37779 348.84375 347.6875 L 252.5 305.59375 L 255.75 298.1875 L 348.5625 338.75 C 348.71254 333.53528 349.38773 328.3069 350.65625 323.125 C 352.42741 315.88918 355.24106 309.1097 358.9375 302.84375 C 354.01455 256.48761 382.51582 203.16095 382.75 202.75 C 407.40605 218.64138 430.19271 235.21034 442.46875 255.59375 C 459.72836 253.82156 478.2241 254.97465 496.90625 259.5625 C 515.87784 264.22139 533.05694 271.90764 547.6875 281.6875 C 561.16781 273.79376 577.83345 269.42919 595.9375 266.59375 L 595.9375 112.46875 L 40.34375 112.46875 z M 595.9375 266.59375 L 595.9375 394.65625 L 596.03125 394.65625 L 596.03125 266.5625 C 595.99875 266.56758 595.96999 266.58866 595.9375 266.59375 z M 595.9375 394.65625 L 593.59375 394.53125 C 590.69715 401.50163 586.79476 407.94563 582 413.8125 L 595.9375 416.90625 L 595.9375 394.65625 z M 595.9375 416.90625 L 595.9375 425.21875 L 596.03125 425.25 L 596.03125 416.9375 L 595.9375 416.90625 z M 595.9375 425.21875 L 575.71875 420.71875 C 572.31288 424.06084 568.5898 427.14487 564.59375 430 L 564.84375 430.03125 C 564.69467 430.66808 564.58382 431.26205 564.46875 431.84375 L 595.9375 443.9375 L 595.9375 425.21875 z M 595.9375 443.9375 L 595.9375 452.5625 L 596.03125 452.59375 L 596.03125 443.96875 L 595.9375 443.9375 z M 595.9375 452.5625 L 564.1875 440.375 C 565.42343 445.75666 569.96499 448.74845 576.40625 458.5 C 583.43265 461.52809 589.87805 464.43773 595.9375 467.28125 L 595.9375 452.5625 z M 595.9375 467.28125 L 595.9375 639.46875 C 595.96958 639.46869 595.99914 639.46882 596.03125 639.46875 L 596.03125 467.3125 C 596.00249 467.299 595.96628 467.29476 595.9375 467.28125 z M 595.9375 650 L 595.9375 668.0625 L 351.59375 668.0625 C 351.67734 668.12534 351.75985 668.18735 351.84375 668.25 L 596.03125 668.25 L 596.03125 650 C 596.00073 649.99899 595.96804 650.00102 595.9375 650 z M 430.09375 319.5 C 425.3087 319.76771 420.79393 323.17837 420.59375 330 C 420.1667 344.55281 441.7903 344.03873 441.46875 330.25 C 441.29793 322.92474 435.51681 319.1966 430.09375 319.5 z M 513.09375 336.34375 C 507.74194 336.32833 502.351 339.8807 502.34375 346.8125 C 502.32921 360.67611 523.62195 362.06292 523.71875 347.3125 C 523.76713 339.93729 518.44556 336.35917 513.09375 336.34375 z "
       transform="translate(-68.539833,40.965229)"
       id="rect2990"
       inkscape:export-filename="D:\git\aceim\Ace IM\design\vkontakte_plugin.png"
       inkscape:export-xdpi="207.31076"
       inkscape:export-ydpi="207.31076" />
    <path
       style="fill:#5075a5"
       d="m -28.12105,152.88116 0,296.90625 c 7.3199,2.8061 15.2564,4.375 23.5312998,4.375 l 205.4374502,0 c 36.4289,0 66.21875,-29.80339 66.21875,-66.21875 l 0,-205.46875 c 0,-10.62543 -2.53294,-20.67123 -7.03125,-29.59375 l -288.15625,0 z m 61.4063,39.59375 66.6562,0 c 13.8512,0 24.3616,0.54375 31.5,1.625 7.1407,1.04069 13.8341,3.23936 20.0625,6.625 6.7442,3.62892 11.8223,8.51655 15.1563,14.5625 3.3293,6.09551 5,13.10185 5,21.0625 0,9.20397 -2.2794,17.41024 -6.9063,24.59375 -4.584,7.18351 -10.9444,12.42432 -19.0313,15.84375 l 0,1 c 11.6278,2.4756 20.9677,7.43356 27.9688,15 7.0078,7.56645 10.5312,17.78328 10.5312,30.59375 0,9.37528 -1.7645,17.6321 -5.3124,24.71875 -3.5545,7.09791 -8.3227,12.95087 -14.3438,17.625 -7.0844,5.57065 -14.8802,9.52977 -23.4062,11.90625 -8.4788,2.37423 -19.2315,3.53125 -32.3438,3.53125 l -75.5312,0 0,-188.6875 z m 47.1562,34.625 0,39.9375 5.9688,0 c 8.0889,0 13.7852,-0.101 17.0312,-0.28125 3.2392,-0.16219 6.6337,-1.02115 10.0938,-2.625 3.7639,-1.77729 6.3911,-4.23292 7.8124,-7.34375 1.4373,-3.16939 2.1876,-6.80203 2.1876,-10.90625 0,-3.06803 -0.7828,-6.20093 -2.3438,-9.40625 -1.5588,-3.19642 -3.9719,-5.53836 -7.3125,-6.96875 -3.1063,-1.3876 -6.7826,-2.0881 -11.0625,-2.21875 -4.2822,-0.13065 -10.6601,-0.1875 -19.0938,-0.1875 l -3.2812,0 z m 0,72.21875 0,47.25 2.5625,0 c 12.3239,0 20.8388,-0.0788 25.5625,-0.25 4.7102,-0.16669 9.5629,-1.32232 14.4375,-3.4375 4.3295,-1.86289 7.4485,-4.5521 9.4375,-8.15625 1.9868,-3.58612 3,-7.67527 3,-12.21875 0,-5.82745 -1.1883,-10.36522 -3.5625,-13.65625 -2.3765,-3.32933 -5.9327,-5.78381 -10.6563,-7.46875 -2.8586,-1.13981 -6.8226,-1.76208 -11.8437,-1.90625 -5.0142,-0.12389 -11.7538,-0.15625 -20.1875,-0.15625 l -8.75,0 z"
       id="path2984"
       inkscape:connector-curvature="0"
       inkscape:export-filename="D:\git\aceim\Ace IM\design\vkontakte_plugin.png"
       inkscape:export-xdpi="207.31076"
       inkscape:export-ydpi="207.31076" />
  </g>
</svg>
