<?xml version="1.0" encoding="UTF-8" standalone="no"?>
<!-- Created with Inkscape (http://www.inkscape.org/) -->

<svg
   xmlns:dc="http://purl.org/dc/elements/1.1/"
   xmlns:cc="http://creativecommons.org/ns#"
   xmlns:rdf="http://www.w3.org/1999/02/22-rdf-syntax-ns#"
   xmlns:svg="http://www.w3.org/2000/svg"
   xmlns="http://www.w3.org/2000/svg"
   xmlns:sodipodi="http://sodipodi.sourceforge.net/DTD/sodipodi-0.dtd"
   xmlns:inkscape="http://www.inkscape.org/namespaces/inkscape"
   width="959.93677"
   height="959.93677"
   id="svg3087"
   version="1.1"
   inkscape:version="0.48.4 r9939"
   sodipodi:docname="xmpp_plugin_icon.svg"
   inkscape:export-filename="D:\studyworkspace\Ace IM\res\drawable-xxhdpi\dummy_icon.png"
   inkscape:export-xdpi="194.35384"
   inkscape:export-ydpi="194.35384">
  <defs
     id="defs3089">
    <inkscape:perspective
       sodipodi:type="inkscape:persp3d"
       inkscape:vp_x="0 : 332 : 1"
       inkscape:vp_y="0 : 1000 : 0"
       inkscape:vp_z="443 : 332 : 1"
       inkscape:persp3d-origin="221.5 : 221.33333 : 1"
       id="perspective3265" />
    <inkscape:perspective
       id="perspective23"
       inkscape:persp3d-origin="230.05077 : 64.253571 : 1"
       inkscape:vp_z="460.10153 : 96.380356 : 1"
       inkscape:vp_y="0 : 1000 : 0"
       inkscape:vp_x="0 : 96.380356 : 1"
       sodipodi:type="inkscape:persp3d" />
    <inkscape:perspective
       id="perspective15"
       inkscape:persp3d-origin="221.5 : 221.33333 : 1"
       inkscape:vp_z="443 : 332 : 1"
       inkscape:vp_y="0 : 1000 : 0"
       inkscape:vp_x="0 : 332 : 1"
       sodipodi:type="inkscape:persp3d" />
  </defs>
  <sodipodi:namedview
     id="base"
     pagecolor="#ffffff"
     bordercolor="#666666"
     borderopacity="1.0"
     inkscape:pageopacity="0.0"
     inkscape:pageshadow="2"
     inkscape:zoom="0.49497475"
     inkscape:cx="1223.1778"
     inkscape:cy="385.57758"
     inkscape:document-units="px"
     inkscape:current-layer="layer1"
     showgrid="false"
     inkscape:window-width="1920"
     inkscape:window-height="1017"
     inkscape:window-x="-8"
     inkscape:window-y="-8"
     inkscape:window-maximized="1"
     fit-margin-top="0"
     fit-margin-left="0"
     fit-margin-right="0"
     fit-margin-bottom="0" />
  <metadata
     id="metadata3092">
    <rdf:RDF>
      <cc:Work
         rdf:about="">
        <dc:format>image/svg+xml</dc:format>
        <dc:type
           rdf:resource="http://purl.org/dc/dcmitype/StillImage" />
        <dc:title></dc:title>
      </cc:Work>
    </rdf:RDF>
  </metadata>
  <g
     inkscape:label="Layer 1"
     inkscape:groupmode="layer"
     id="layer1"
     transform="translate(68.539833,-40.965229)">
    <path
       style="fill:#7f7f7f;stroke:none;stroke-opacity:1;fill-opacity:0.39215687"
       d="M 40.34375 112.46875 L 40.34375 668.0625 L 351.59375 668.0625 C 349.83085 666.73735 348.13591 665.36879 346.53125 663.9375 C 328.91826 651.68697 328.29073 637.99332 336.375 619.4375 C 338.92638 611.70775 344.41319 604.37374 360.5 600.375 C 362.85024 599.79079 365.35364 599.53231 368 599.53125 C 393.58145 599.52104 433.4266 624.74014 496.03125 636.46875 C 532.23627 643.25155 568.71527 649.09079 595.9375 650 L 595.9375 639.46875 C 570.81771 639.5196 555.97694 636.62874 528.90625 632.65625 C 569.16068 598.82908 607.56413 552.11707 587.15625 539.78125 C 580.92911 542.52984 595.51107 572.03143 516.875 631.125 C 502.32311 630.28019 501.08612 630.56577 489.625 627.46875 C 500.30445 617.34563 500.1994 543.60701 491 540.40625 C 474.72687 536.19964 509.93612 650.97389 462.09375 619.90625 C 431.57547 608.24525 436.55732 554.79146 438.5 537.5625 C 409.66704 575.22023 450.70683 615.63258 429.1875 608.65625 C 406.14358 597.75551 388.63774 593.64632 378.34375 594.28125 C 354.08989 539.70908 329.17718 446.30936 378.28125 409.6875 L 381.34375 410.03125 C 379.64198 408.40405 377.99087 406.72182 376.40625 405.03125 L 237.8125 401.09375 L 238.03125 393 L 369.28125 396.71875 C 364.99198 391.21724 361.30763 385.45781 358.28125 379.53125 L 234.6875 353.6875 L 236.34375 345.78125 L 354.1875 370.4375 C 351.32999 363.01405 349.52448 355.37779 348.84375 347.6875 L 252.5 305.59375 L 255.75 298.1875 L 348.5625 338.75 C 348.71254 333.53528 349.38773 328.3069 350.65625 323.125 C 352.42741 315.88918 355.24106 309.1097 358.9375 302.84375 C 354.01455 256.48761 382.51582 203.16095 382.75 202.75 C 407.40605 218.64138 430.19271 235.21034 442.46875 255.59375 C 459.72836 253.82156 478.2241 254.97465 496.90625 259.5625 C 515.87784 264.22139 533.05694 271.90764 547.6875 281.6875 C 561.16781 273.79376 577.83345 269.42919 595.9375 266.59375 L 595.9375 112.46875 L 40.34375 112.46875 z M 595.9375 266.59375 L 595.9375 394.65625 L 596.03125 394.65625 L 596.03125 266.5625 C 595.99875 266.56758 595.96999 266.58866 595.9375 266.59375 z M 595.9375 394.65625 L 593.59375 394.53125 C 590.69715 401.50163 586.79476 407.94563 582 413.8125 L 595.9375 416.90625 L 595.9375 394.65625 z M 595.9375 416.90625 L 595.9375 425.21875 L 596.03125 425.25 L 596.03125 416.9375 L 595.9375 416.90625 z M 595.9375 425.21875 L 575.71875 420.71875 C 572.31288 424.06084 568.5898 427.14487 564.59375 430 L 564.84375 430.03125 C 564.69467 430.66808 564.58382 431.26205 564.46875 431.84375 L 595.9375 443.9375 L 595.9375 425.21875 z M 595.9375 443.9375 L 595.9375 452.5625 L 596.03125 452.59375 L 596.03125 443.96875 L 595.9375 443.9375 z M 595.9375 452.5625 L 564.1875 440.375 C 565.42343 445.75666 569.96499 448.74845 576.40625 458.5 C 583.43265 461.52809 589.87805 464.43773 595.9375 467.28125 L 595.9375 452.5625 z M 595.9375 467.28125 L 595.9375 639.46875 C 595.96958 639.46869 595.99914 639.46882 596.03125 639.46875 L 596.03125 467.3125 C 596.00249 467.299 595.96628 467.29476 595.9375 467.28125 z M 595.9375 650 L 595.9375 668.0625 L 351.59375 668.0625 C 351.67734 668.12534 351.75985 668.18735 351.84375 668.25 L 596.03125 668.25 L 596.03125 650 C 596.00073 649.99899 595.96804 650.00102 595.9375 650 z M 430.09375 319.5 C 425.3087 319.76771 420.79393 323.17837 420.59375 330 C 420.1667 344.55281 441.7903 344.03873 441.46875 330.25 C 441.29793 322.92474 435.51681 319.1966 430.09375 319.5 z M 513.09375 336.34375 C 507.74194 336.32833 502.351 339.8807 502.34375 346.8125 C 502.32921 360.67611 523.62195 362.06292 523.71875 347.3125 C 523.76713 339.93729 518.44556 336.35917 513.09375 336.34375 z "
       transform="translate(-68.539833,40.965229)"
       id="rect2990"
       inkscape:export-filename="D:\git\aceim\Ace IM\design\xmpp_plugin.png"
       inkscape:export-xdpi="207.3029"
       inkscape:export-ydpi="207.3029" />
    <path
       inkscape:connector-curvature="0"
       inkscape:export-ydpi="207.3029"
       inkscape:export-xdpi="207.3029"
       inkscape:export-filename="D:\git\aceim\Ace IM\design\xmpp_plugin.png"
       id="path26"
       style="fill:#ffb400;stroke:none"
       d="m 55.677534,334.81088 c 0,-6.32772 -1.1688,-13.2353 -4.8448,-18.54142 -7.3703,-10.63587 -23.1925,-14.01877 -34.2061,-7.31659 -5.5668,3.39017 -8.6629002,9.30888 -10.4082002,15.38574 -3.4652,12.06647 -1.8762,25.8362 0.547,37.95356 0.7745,3.87553 1.5745,7.7565 2.6616,11.56112 0.3927,1.37243 0.5745002,3.36654 1.4671002,4.50811 1.5579,1.99594 5.3614,2.57399 7.6937,2.18135 6.9976,-1.17611 5.265,-12.69724 5.0269,-17.59617 -0.5581,-11.47569 -3.9397,-22.61327 -0.6636,-34.02715 1.3872,-4.82985 4.0669,-10.2614 8.9447,-12.35912 4.4032,-1.89596 8.8465,0.42354 10.5899,4.72442 2.8232,6.96394 2.1179,15.00401 3.8886,22.24971 0.6018,2.46309 1.2636,4.90257 2.3744,7.19843 0.3217,0.66349 0.7653,2.04319 1.698,1.95957 2.2671,-0.20722 5.4904,-3.99003 7.1901,-5.39337 5.4904,-4.53719 11.1317,-9.39614 17.453,-12.75359 2.9743,-1.57966 7.8682,-4.13728 10.9063,-1.45059 0.7743,0.68531 1.3979,1.50331 1.9523,2.37039 3.5707,5.59333 0.025,9.95057 -2.2959,15.26941 -3.0052,6.88396 -6.0848,13.69884 -10.4391,19.85023 -3.7433,5.28976 -8.859,9.92693 -11.8499,15.70567 -1.9253,3.72101 -3.0142,7.79831 -2.218,11.99739 0.6455,3.39562 3.2779,5.44609 6.7413,4.6499 2.5925,-0.59623 4.3487,-2.81757 5.8267,-4.86803 2.6344,-3.65739 5.0814,-7.45293 7.6994,-11.12486 5.065,-7.10209 11.0408,-13.74246 15.3004,-21.37716 5.134096,-9.20346 7.610196,-19.61755 7.604596,-30.10073 -0.01,-8.56723 -3.1104,-21.66075 -13.089696,-23.45672 -1.8779,-0.33628 -4.0251,-0.15269 -5.8904,0.17269 -2.3178,0.40355 -4.6449,1.15794 -6.7629,2.18317 -5.674,2.74486 -10.5809,6.84396 -14.7968,11.50477 -2.6305,2.90482 -4.9867,6.55857 -8.1083,8.94351" />
    <path
       inkscape:connector-curvature="0"
       style="fill:#ff0000;fill-opacity:1;stroke:none"
       d="m -28.178608,153.20704 0,50.25 c 7.2953,-9.8013 15.671699,-18.727 27.40629947,-23.1563 14.78050053,-5.5787 31.70690053,-6.8962 47.34370053,-7.9687 43.8707,-3.0066 91.807808,4.9995 124.125008,37.3125 4.5959,4.5954 8.9566,9.4831 12.6563,14.8437 14.4695,20.9518 22.0961,44.7889 25.7812,69.8125 1.7326,11.7484 2.9298,23.6133 0.25,35.3125 -4.6505,20.2974 -16.8323,37.9597 -30.8438,53 -9.59,10.2942 -20.3931,19.6044 -31.625,28.0625 -6.2702,4.7208 -13.2916,8.7456 -19.1874,13.9063 -6.7903,5.9442 -12.4578,13.3815 -16.75,21.3125 -11.551708,21.3553 -14.647708,47.0365 -11.250008,70.875 0.696398,4.8862 1.330408,9.8061 2.437408,14.625 0.3309,1.4415 0.38,3.9158 1.3126,5.0937 1.7454,2.2032 6.5204,3.4022 9.1874,3.5313 2.7817,0.1345 4.6307,-2.006 5.3126,-4.5 1.167,-4.2736 0.4575,-8.9822 -0.2188,-13.2813 -1.3853,-8.8053 -2.6427,-17.6869 -2.25,-26.625 0.7236,-16.5036 7.0924,-31.8827 18.5312,-43.8437 11.6336,-12.1646 27.3731,-19.1845 40.5938,-29.375 26.6449,-20.5374 50.4897,-48.2459 59.6562,-81.2188 3.2762,-11.7919 4.3713,-24.267 2.875,-36.4062 -1.8907,-15.3548 -7.4907,-30.6958 -12.7812,-45.1563 -16.124,-44.0776 -43.7936,-85.9915 -87.7188,-106.1562 -0.1865,-0.086 -0.3757,-0.1654 -0.5624,-0.25 l -164.281308,0 z"
       id="rect3062-4"
       inkscape:export-filename="D:\git\aceim\Ace IM\design\xmpp_plugin.png"
       inkscape:export-xdpi="207.3029"
       inkscape:export-ydpi="207.3029" />
    <path
       inkscape:connector-curvature="0"
       style="fill:#ff0000;fill-opacity:1;stroke:none;stroke-opacity:1;stroke-width:3.10000000000000010;stroke-miterlimit:4;stroke-dasharray:none"
       d="m -27.02964,421.396 c -0.3824,0.014 -0.7859,0.076 -1.1875,0.125 l 0,32.5 c 2.4379,2.4615 5.1215,4.7311 7.7813,6.7812 19.78179989,15.2476 45.3064,23.4657 70.2187,22.375 9.721,-0.4253 20.329,-2.0317 29.25,-6.1562 4.7832,-2.2105 9.7952,-10.1542 3.2813,-13.5625 -0.8926,-0.4672 -2.068,-0.7739 -3.0626,-0.9375 -2.8451,-0.4654 -6.0227,0.7568 -8.7187,1.5312 -4.7541,1.3652 -9.5122,2.746 -14.4063,3.5313 -14.6223,2.3486 -30.425,-0.9927 -42.5312,-9.6563 -9.7862001,-7.0057 -17.7152001,-16.2227 -25.1875,-25.5625 -4.288,-5.3596 -8.1926,-11.2292 -15.4375,-10.9687 z"
       id="rect3062-9"
       inkscape:export-filename="D:\git\aceim\Ace IM\design\xmpp_plugin.png"
       inkscape:export-xdpi="207.3029"
       inkscape:export-ydpi="207.3029" />
    <path
       inkscape:connector-curvature="0"
       style="fill:#ff0000;fill-opacity:1;stroke:none"
       d="m -28.171911,475.34229 0,24.9375 c 1.9849,1.53448 4.0158,3.01138 6.0313,4.4375 21.7434004,15.38029 46.355,24.27778 72.8437,26.09375 7.6156,0.5217 15.3742,-0.027 22.9063,-1.28125 2.7541,-0.45991 6.2047,-0.68617 8.75,-1.875 7.2028,-3.36836 5.1158,-16.9752 -1.3126,-20 -2.807,-1.31971 -7.3066,0.43475 -10.25,0.84375 -6.9611,0.97069 -13.9675,1.07712 -20.9687,0.90625 -18.3493,-0.44899 -37.8873,-6.11319 -53.8749996,-15.03125 -6.2848004,-3.50833 -12.0415004,-7.78138 -17.4375004,-12.53125 -2.1166,-1.86302 -4.2832,-4.47751 -6.6875,-6.5 z"
       id="rect3062-8"
       inkscape:export-filename="D:\git\aceim\Ace IM\design\xmpp_plugin.png"
       inkscape:export-xdpi="207.3029"
       inkscape:export-ydpi="207.3029" />
    <path
       inkscape:connector-curvature="0"
       style="fill:#ff0000;fill-opacity:1;stroke:none"
       d="m -28.200795,515.75551 0,34.2812 c 8.4339,5.027 17.5106,8.8996 26.7499996,12.1875 22.8926004,8.1473 49.7258004,13.3464 73.5000004,6.0625 7.0667,-2.1631 14.0811,-6.1226 19.2187,-11.4687 2.8941,-3.0121 4.871,-7.5713 -0.4374,-9.5 -3.1452,-1.1416 -6.9601,1.7886 -9.8126,2.9375 -6.7338,2.7158 -13.7089,4.7819 -20.9374,5.6562 -9.5209,1.1543 -18.1057,-0.9541 -27.2813,-3.25 -7.8374,-1.9595 -15.766,-3.9251 -23.3437004,-6.75 -6.4649,-2.4104 -12.8738,-5.2785 -18.5312998,-9.2812 -1.6906998,-1.1961 -3.7395998,-2.2547 -5.1249998,-3.8125 -4.5286,-5.0953 -7.9253,-11.0601 -12.7813,-15.9063 -0.3813,-0.3806 -0.7829,-0.7667 -1.2187,-1.1562 z"
       id="rect3062-2"
       inkscape:export-filename="D:\git\aceim\Ace IM\design\xmpp_plugin.png"
       inkscape:export-xdpi="207.3029"
       inkscape:export-ydpi="207.3029" />
  </g>
</svg>
